<?xml version="1.0" encoding="utf-8"?>
<!-- Generator: Adobe Illustrator 26.0.3, SVG Export Plug-In . SVG Version: 6.00 Build 0)  -->
<svg version="1.1" xmlns="http://www.w3.org/2000/svg" xmlns:xlink="http://www.w3.org/1999/xlink" x="0px" y="0px"
	 viewBox="0 0 430.3 183.7" style="enable-background:new 0 0 430.3 183.7;" xml:space="preserve">
<style type="text/css">
	.st0{fill-rule:evenodd;clip-rule:evenodd;fill:#8A8C8E;}
	.st1{fill-rule:evenodd;clip-rule:evenodd;fill:#C7C8CA;}
	.st2{fill-rule:evenodd;clip-rule:evenodd;fill:#8B714B;}
	.st3{fill-rule:evenodd;clip-rule:evenodd;fill:#C6A16C;}
	.st4{fill-rule:evenodd;clip-rule:evenodd;}
	.st5{fill-rule:evenodd;clip-rule:evenodd;fill:#B1101A;}
	.st6{fill-rule:evenodd;clip-rule:evenodd;fill:#00386C;}
	.st7{fill-rule:evenodd;clip-rule:evenodd;fill:#005496;}
	.st8{fill-rule:evenodd;clip-rule:evenodd;fill:#0066B3;}
	.st9{fill-rule:evenodd;clip-rule:evenodd;fill:#004B88;}
	.st10{fill-rule:evenodd;clip-rule:evenodd;fill:#FFFFFF;}
	.st11{fill:#005288;}
	.st12{fill:#005287;}
</style>
<g id="Camada_1">
</g>
<g id="Camada_2">
	<g>
		<g>
			<g>
				<g>
					<path class="st0" d="M126.7,41.2v-2.4l-2.4-3.1l-2,1.7l-0.4-0.5l1.2-1l0-1.9l-3.5-4.4c-0.7,0.8-2.2,1-3.9-0.5
						c0.5-0.2,0.7-2,0.4-2.3c0.8-0.5,1-0.9,1.2-2c2.4-0.6,0-4-1.1-1.2c-1.3-0.5-2.2-0.2-2.5,1.2c-1.3-0.1-2.4-0.3-2.6,1.1
						c-0.2,0.5-0.4,1-0.7,1.3c-0.6,0.9-1.7,1.4-3.2,2.1c-1.2,0.9-1.3,1.8-1.1,3c-1.3-1-3.3-0.8-4.3,1.3c-0.5,0.7-1.5,2-2.2,2.8
						c-0.3,0.3-0.8,0.5-1,0.5c-0.5-0.1-0.5-0.2-1.1-0.1c-1.1-0.1-1.6,0.1-1.5,0.7c-0.6,0.4-1.1,1-0.8,1.8c-1.1,1.9-1.8,2.9-2.9,3.7
						c-2.5,2-5.1,3.7-7.7,5.3L61.3,62.2h18.5c5.6-6.5,10.4-15,18.1-18.3c0.9-0.3,0.8-0.2,1.2-0.2c0.8-0.1,1.3-1.7,2-0.4l0.1,3.1
						l3.7,4.8l2.1-1.7l0.5,0.7l-0.9,0.7l-0.3,2l2.4,3.3l3.3-2.7l0-1.9l-0.6-0.8l1-0.9l1.5,2l2.9-2.5l0-1.9l-2.5-3.2l-1.9,1.6
						l-0.5-0.6l1.3-1.1l0-1.7l-0.8-1.1l0.5-0.5l1.7,2.1l2-1.6l0.4,0.4l-1,0.9l-0.1,2.2l2.5,3.2l3.1-2.5v-2.4l-0.3-0.4l0.7-0.6
						l1.3,1.7L126.7,41.2z"/>
					<path class="st1" d="M126.4,38.9l-2.2-2.9l-2,1.7l-1.5-1.8l2.1-1.9l-3.2-4l-17.2,14.8l3.1,4l1.7-1.4l1.6,2l-1.8,1.4l2.1,2.8
						l2.6-2.1l-1.4-1.8l2.6-2.3l1.4,2l2.3-2l-2.1-2.8l-2,1.7l-1.6-2l1.9-1.7l-1.7-2.2l2.3-1.9l1.7,2.1l1.7-1.4l1.5,1.8l-1.7,1.5
						l2.2,2.9l2.6-2.2l-1.5-1.9l2.5-2l1.4,1.7L126.4,38.9L126.4,38.9z M126.4,41l-2.9,2.4l-1.3-1.8l-1,0.9l-0.9-1.1l2-1.7l1.5,1.8
						l2.5-2.2L126.4,41L126.4,41z M121.5,43.7v1.6l-2.8,2.3l-2.2-2.9l0-1.8l2.4,3L121.5,43.7L121.5,43.7z M122.8,34.3l0,1.5
						l-1.1,0.9l-0.7-0.8L122.8,34.3L122.8,34.3z M113.1,42.8l0,1.4l-1.2,0.9l-0.6-0.7L113.1,42.8L113.1,42.8z M118.2,41l-0.7,0.6
						l-0.5-0.7l-2,1.7l-1.7-2.2l-1,0.9l-0.6-0.8l1.9-1.6l1.7,2.1l1.7-1.5L118.2,41L118.2,41z M116.7,47.7v1.6l-2.6,2.2l-1.5-2
						l-1.3,1.1l-0.5-0.7l2.1-1.8l1.4,1.9L116.7,47.7L116.7,47.7z M111.8,51.9l0,1.4l-2.9,2.5l-2.2-2.9l0.2-1.6l2.3,2.8L111.8,51.9
						L111.8,51.9z M108.3,49.5l-0.6,0.5l-0.7-0.9l-2,1.7l-3.2-4.2l0.3-1.3l3.3,4l1.7-1.3L108.3,49.5L108.3,49.5z M117.2,23.2
						c0.3,0,0.6,0.2,0.6,0.5c0,0.3-0.3,0.5-0.6,0.5c-0.3,0-0.6-0.2-0.6-0.5S116.9,23.2,117.2,23.2L117.2,23.2z M116.4,24.6l-0.5-0.4
						c-1.2-1.1-2.7,0.5-1.7,1.9C115,27.3,117.2,25.8,116.4,24.6L116.4,24.6z M115.7,24.9c0,0.9-0.9,0.7-0.6,0.5
						c0.1-0.1,0.3-0.2,0.3-0.4C115.5,25,115.6,24.7,115.7,24.9L115.7,24.9z M116.2,24.8c0.1,0.4-0.1,1.3-0.9,1.4
						c-0.2,0-0.2-0.3,0-0.3c0.7,0.1,0.6-0.8,0.7-1C116,24.6,116.1,24.6,116.2,24.8L116.2,24.8z M115.1,29.2c0,0.5-0.4,0.5-0.6,0.2
						c-0.9-1.5-1-2.4-2.6-3.4c-0.3-0.3-0.3-0.6,0.2-0.6C113.3,25.5,115.1,27.5,115.1,29.2L115.1,29.2z M114.2,29.3
						c-1.3-0.2-2.5,0.6-3.2,2.4c-0.6,1.3-2.3,2.6-4,1.4c-1.5-1.2-0.2-3.3,1.2-3.8c1.8-0.7,2.7-1.5,3.3-3.5
						C113.1,27,113.9,28.5,114.2,29.3L114.2,29.3z M107.7,32.6c0.6,0.1,1.5-0.1,2.2-0.8c0.6-0.6,1.8-3.2,3.4-3l0,0.1
						c-1.1-0.1-2,1.4-2.5,2.2c-0.7,1.1-1.7,2-3.1,1.7C107.3,32.8,107.6,32.6,107.7,32.6L107.7,32.6z M107.7,32
						c0.9,0.2,1.9-0.8,2.4-1.4c0.5-0.8,0.9-1.2,1.3-1.5l0.1,0.1c-0.2,0.2-0.6,0.6-1.4,1.8c-0.6,0.8-1.4,1.6-2.5,1.4
						C107.3,32.2,107.5,32,107.7,32L107.7,32z M98.6,37.2c0.6-0.1,1.7-0.9,2.6-2c0.6-0.7,0.9-1.7,1.6-2.3c0.8-0.7,2.4-0.8,3.4,0
						c1.2,1.6,0,3.9-1.6,4.4c-2.2,0.6-3.2,1.8-3.7,2.9C99.8,38.5,99.3,37.9,98.6,37.2L98.6,37.2z M118.5,30.5l-16.3,14.2
						c-0.2-1.5,0.3-3.1-0.4-4.5c0-0.9,1.5-2.1,4-2.8c1.6-1.2,1.5-2.4,1.5-3.7c1.7,0.9,3.3-0.2,4.1-1.7c0.5-0.9,1.4-2.4,2.8-2.5
						c0.4,0.3,0.9,0.3,1.2,0.1C115.7,30.3,116.9,30.7,118.5,30.5L118.5,30.5z M110.1,34.1l1.3-0.8l0.1,0.2l-1.3,0.8L110.1,34.1
						L110.1,34.1z M103.5,40.7l3.9-3l0.1,0.2l-3.9,3L103.5,40.7L103.5,40.7z M103.4,42.3l8.2-6.8l0.1,0.2l-8.1,6.8L103.4,42.3
						L103.4,42.3z M112.4,34.3l3.9-3l0.1,0.2l-3.9,3L112.4,34.3L112.4,34.3z M100.7,40.5c-0.8-1.3-1.4-2.1-2.5-3.1
						c-0.4-0.2-0.5-0.1-0.4,0.3c1.3,1.2,1.9,2.3,2.6,3.4C100.6,41.5,101,40.8,100.7,40.5L100.7,40.5z M98.6,41.7
						c-1.2-1.4-1.2-1.7-2.5-3.2c-0.4-0.3-0.8,0-0.6,0.5c1.3,1.8,1.4,1.9,2.5,3.4C98.3,42.9,99,42,98.6,41.7L98.6,41.7z M100,41.3
						c-1.2-1.7-1.2-2-2.8-3.7c-0.5-0.3-1,0.1-0.7,0.6c1.5,2,1.7,2.1,2.9,3.9C99.6,42.7,100.4,41.6,100,41.3L100,41.3z M65.6,61.3
						c4.1-2.5,15.6-10.4,21.3-14c3.8-2.5,6.6-4.2,8.6-7.6c1.1,1,1.6,1.9,2.5,3.2c-2.7,1.4-4.2,2.8-7,5.1c-4.3,4.3-7.6,8.7-11.2,13.3
						L65.6,61.3L65.6,61.3z M87.7,50.4c-1.9,2.1-3.7,4.3-5.5,6.5l0.2,0.2c1.7-2.3,3.5-4.4,5.4-6.5c2.4-2.7,5.3-5,8.3-7.1l-0.2-0.1
						C93.2,45.3,90.3,47.4,87.7,50.4L87.7,50.4z M81.7,56.7l2-2.5l-0.2-0.1l-2.1,2.4L81.7,56.7z M112.6,25.1c0.3,0,0.7,0,1,0
						c0.1,0.4,0.3,0.8,0.5,1.2C113.6,25.8,113.1,25.4,112.6,25.1L112.6,25.1z M115.3,28.3c-0.3-0.6-0.5-1.2-0.9-1.7
						c0.6,0.3,0.9,0.1,1.1,0.3C115.7,27.5,115.6,28.5,115.3,28.3L115.3,28.3z M102,43.9c0-1,0-1.9-0.1-2.9c-0.1-0.4-0.4-0.3-0.5,0.6
						l0.4,3.5C101.8,44.7,101.8,44.7,102,43.9z"/>
				</g>
				<g>
					<path class="st2" d="M0,41.2v-2.4l2.4-3.1l2,1.7l0.4-0.5l-1.2-1l0-1.9l3.5-4.4c0.7,0.8,2.2,1,3.9-0.5c-0.5-0.2-0.7-2-0.4-2.3
						c-0.8-0.5-1-0.9-1.2-2c-2.4-0.6,0-4,1.1-1.2c1.3-0.5,2.2-0.2,2.5,1.2c1.3-0.1,2.4-0.3,2.6,1.1c0.2,0.5,0.4,1,0.7,1.3
						c0.6,0.9,1.7,1.4,3.2,2.1c1.2,0.9,1.3,1.8,1.1,3c1.3-1,3.3-0.8,4.3,1.3c0.5,0.7,1.5,2,2.2,2.8c0.3,0.3,0.8,0.5,1,0.5
						c0.5-0.1,0.5-0.2,1.1-0.1c1.1-0.1,1.6,0.1,1.5,0.7c0.6,0.4,1.1,1,0.8,1.8c1.1,1.9,1.8,2.9,2.9,3.7c2.5,2,5.1,3.7,7.7,5.3
						l23.3,13.8H46.9c-5.6-6.5-10.4-15-18.1-18.3c-0.9-0.3-0.8-0.2-1.2-0.2c-0.8-0.1-1.3-1.7-2-0.4l-0.1,3.1l-3.7,4.8l-2.1-1.7
						l-0.5,0.7l0.9,0.7l0.3,2l-2.4,3.3l-3.3-2.7l0-1.9l0.6-0.8l-1-0.9l-1.5,2l-2.9-2.5l0-1.9l2.5-3.2l1.9,1.6l0.5-0.6l-1.3-1.1
						l0-1.7l0.8-1.1l-0.5-0.5l-1.7,2.1l-2-1.6l-0.4,0.4l1,0.9l0.1,2.2L8,48L5,45.5v-2.4l0.3-0.4l-0.7-0.6l-1.3,1.7L0,41.2z"/>
					<path class="st3" d="M0.2,38.9l2.6,2.2l1.4-1.7l2.5,2l-1.5,1.9l2.6,2.2l2.2-2.9L8.2,41l1.5-1.8l1.7,1.4l1.7-2.1l2.3,1.9
						l-1.7,2.2l1.9,1.7l-1.6,2l-2-1.7l-2.1,2.8l2.3,2l1.4-2l2.6,2.3L15,51.6l2.6,2.1l2.1-2.8l-1.8-1.4l1.6-2l1.7,1.4l3.1-4L7.1,30
						l-3.2,4L6,35.9l-1.5,1.8l-2-1.7L0.2,38.9L0.2,38.9z M0.3,41l0-1.7l2.5,2.2l1.5-1.8l2,1.7l-0.9,1.1l-1-0.9l-1.3,1.8L0.3,41
						L0.3,41z M5.2,43.7l2.5,2.2l2.4-3l0,1.8L8,47.6l-2.8-2.3L5.2,43.7L5.2,43.7z M3.9,34.3l1.8,1.6l-0.7,0.8l-1.1-0.9L3.9,34.3
						L3.9,34.3z M13.6,42.8l1.8,1.6L14.8,45l-1.2-0.9L13.6,42.8L13.6,42.8z M8.5,41l1.2-1.4l1.7,1.5l1.7-2.1l1.9,1.6l-0.6,0.8
						l-1-0.9l-1.7,2.2l-2-1.7l-0.5,0.7L8.5,41L8.5,41z M10,47.7l2.5,2.2l1.4-1.9l2.1,1.8l-0.5,0.7l-1.3-1.1l-1.5,2L10,49.2V47.7
						L10,47.7z M14.9,51.9l2.7,2.2l2.3-2.8l0.2,1.6l-2.2,2.9l-2.9-2.5L14.9,51.9L14.9,51.9z M18.4,49.5l1.3-1.5l1.7,1.3l3.3-4
						l0.3,1.3l-3.2,4.2l-2-1.7L19,49.9L18.4,49.5L18.4,49.5z M9.5,23.2c0.3,0,0.6,0.2,0.6,0.5c0,0.3-0.3,0.5-0.6,0.5
						c-0.3,0-0.6-0.2-0.6-0.5C8.9,23.4,9.2,23.2,9.5,23.2L9.5,23.2z M10.3,24.6c-0.8,1.2,1.3,2.7,2.1,1.4c1-1.4-0.5-3-1.7-1.9
						L10.3,24.6L10.3,24.6z M11,24.9c0.1-0.2,0.2,0,0.2,0.1c0,0.2,0.2,0.3,0.3,0.4C11.8,25.6,10.9,25.9,11,24.9L11,24.9z M10.5,24.8
						c0.1-0.2,0.3-0.2,0.3,0c0,0.2,0,1.1,0.7,1c0.2,0,0.2,0.3,0,0.3C10.6,26.1,10.4,25.2,10.5,24.8L10.5,24.8z M11.6,29.2
						c0-1.7,1.8-3.6,3-3.9c0.5,0.1,0.5,0.4,0.2,0.6c-1.6,1-1.8,1.9-2.6,3.4C12,29.6,11.6,29.6,11.6,29.2L11.6,29.2z M12.5,29.3
						c0.3-0.9,1.1-2.3,2.7-3.6c0.6,1.9,1.5,2.7,3.3,3.5c1.4,0.6,2.7,2.6,1.2,3.8c-1.7,1.2-3.4-0.1-4-1.4
						C15,29.9,13.9,29.1,12.5,29.3L12.5,29.3z M19,32.6c0.1,0,0.4,0.2,0.1,0.3c-1.4,0.3-2.5-0.6-3.1-1.7c-0.5-0.8-1.4-2.3-2.5-2.2
						l0-0.1c1.6-0.2,2.7,2.4,3.4,3C17.5,32.5,18.4,32.7,19,32.6L19,32.6z M19,32c0.1,0,0.4,0.2,0.1,0.3c-1,0.2-1.9-0.6-2.5-1.4
						c-0.8-1.1-1.2-1.6-1.4-1.8l0.1-0.1c0.4,0.3,0.8,0.7,1.3,1.5C17.2,31.3,18.2,32.2,19,32L19,32z M28.1,37.2
						c-0.8,0.8-1.2,1.3-2.4,3.1c-0.5-1.1-1.4-2.4-3.7-2.9c-1.6-0.5-2.8-2.8-1.6-4.4c1-0.8,2.6-0.7,3.4,0c0.7,0.6,1,1.6,1.6,2.3
						C26.4,36.2,27.5,37.1,28.1,37.2L28.1,37.2z M8.2,30.5c1.6,0.2,2.8-0.2,3.3-0.8c0.3,0.2,0.8,0.2,1.2-0.1
						c1.4,0.1,2.3,1.6,2.8,2.5c0.9,1.4,2.4,2.6,4.1,1.7c-0.1,1.3-0.1,2.6,1.5,3.7c2.4,0.6,4,1.9,4,2.8c-0.7,1.4-0.2,3-0.4,4.5
						L8.2,30.5L8.2,30.5z M16.6,34.1l-0.1,0.1l-1.3-0.8l0.1-0.2L16.6,34.1L16.6,34.1z M23.2,40.7l-0.1,0.1l-3.9-3l0.1-0.2L23.2,40.7
						L23.2,40.7z M23.2,42.3l-0.1,0.1l-8.1-6.8l0.1-0.2L23.2,42.3L23.2,42.3z M14.3,34.3l-0.1,0.1l-3.9-3l0.1-0.2L14.3,34.3
						L14.3,34.3z M26,40.5c-0.3,0.3,0.1,1,0.3,0.5c0.7-1.1,1.3-2.1,2.6-3.4c0.1-0.3,0-0.4-0.4-0.3C27.4,38.4,26.8,39.2,26,40.5
						L26,40.5z M28.1,41.7c-0.4,0.3,0.4,1.2,0.6,0.7c1-1.5,1.2-1.6,2.5-3.4c0.2-0.5-0.2-0.8-0.6-0.5C29.2,40,29.2,40.3,28.1,41.7
						L28.1,41.7z M26.7,41.3c-0.5,0.4,0.4,1.4,0.7,0.8c1.2-1.8,1.4-1.9,2.9-3.9c0.2-0.6-0.2-0.9-0.7-0.6
						C28,39.3,27.9,39.6,26.7,41.3L26.7,41.3z M61.1,61.3H46.9c-3.6-4.6-6.9-9-11.2-13.3c-2.8-2.3-4.4-3.8-7-5.1
						c0.8-1.3,1.4-2.2,2.5-3.2c2,3.4,4.8,5.1,8.6,7.6C45.4,50.9,56.9,58.8,61.1,61.3L61.1,61.3z M39,50.4c-2.6-3-5.4-5.1-8.3-7.1
						l-0.2,0.1c3.1,2.1,5.9,4.4,8.3,7.1c1.9,2.1,3.7,4.2,5.4,6.5l0.2-0.2C42.7,54.7,40.9,52.5,39,50.4L39,50.4z M45.2,56.6l-2.1-2.4
						L43,54.2l2,2.5L45.2,56.6z M14.1,25.1c-0.6,0.3-1.1,0.7-1.5,1.2c0.2-0.4,0.4-0.8,0.5-1.2C13.4,25.1,13.8,25.1,14.1,25.1
						L14.1,25.1z M11.4,28.3c-0.3,0.1-0.4-0.8-0.2-1.4c0.3-0.1,0.5,0,1.1-0.3C11.9,27.1,11.7,27.7,11.4,28.3L11.4,28.3z M24.9,45.1
						l0.4-3.5c-0.1-0.9-0.3-0.9-0.5-0.6c-0.1,1-0.1,1.9-0.1,2.9C24.9,44.7,24.9,44.7,24.9,45.1z"/>
				</g>
			</g>
			<g>
				<path class="st4" d="M88,48.3l0.2-0.2c0-0.2-0.2,0.3-0.4-1c-0.1-0.6,0.4-1.9,0.1-2.8c-0.1-0.1-0.2-0.1-0.3,0.1
					c0.2,0.7-0.1,1.9-0.1,2.4c0,0.3,0,0.4,0.1,0.6C87.5,48.2,88,48.2,88,48.3z M64.8,51.5c3.1,12.3,8.8,15.6,15.8,14.9
					c4.4-0.4,8.3-2.6,8-8.1c-0.1-2.2-3-6.6-4.8-8.9c-1-1.4-2.8-4.6-1.8-7.6c1.9,0.3,2.9,1.5,4.2,3l3.8-1.8c0.4-0.1,0.4-0.6,0.4-0.6
					c-1-1.7-2.6-4.2-5.5-4.2c-2.5,0.6-4.4,1.7-6,3.1c-2,2.5-0.6,7.4,1.3,10.3c1.4,2.1,2.5,3.5,3.3,5.8c1.1,3-1,5.5-5.5,6.3
					c-3.8-2.7-6.9-6.8-7.9-13.2L64.8,51.5z M87.1,44.6c0.2,0.7-0.1,1.7-0.1,2.2c-0.1,0.8-0.1,1.5,0,1.6l0.2-0.1l-0.1-1.2
					c0-0.2,0.5-1.4,0.2-2.6C87.3,44.4,87.2,44.4,87.1,44.6z M89.6,43.5c0.2,0.4,0.3,0.9,0.1,1.5c-0.1,0.5,0.1,0.9,0,0.7
					c0.1,0.4,0.2,0.8,0.1,1.3l0.3-0.2c0-0.6,0.1-0.3-0.1-0.9c0-0.6,0.1-1.7-0.2-2.6C89.7,43.3,89.6,43.3,89.6,43.5z M90.2,43.1
					c0.1,0.4,0.2,1,0.1,1.4c-0.1,0.3-0.2,0.3-0.1,0.6c0.2,0.2,0.2,0.3,0.2,0.5c0.1,0.4,0.1,0.9,0,1.3l0.3-0.2
					c0.1-0.8,0.1-1.4-0.2-1.6c-0.1-0.3,0-0.3,0.1-0.6c0.1-0.4,0-1.1-0.1-1.5C90.4,43,90.2,42.9,90.2,43.1z M88.3,44.2
					c0.2,0.7,0.1,1.8,0.1,2.3c-0.1,0.3,0,0.3,0.2,0.5c0.2,0.4,0.2,0.8,0,1.2l0.4-0.3c0.1-0.6,0.1-0.7-0.2-1.2
					c-0.1-0.6,0.1-1.7-0.1-2.6C88.4,44.1,88.3,44,88.3,44.2z M88.9,46c-0.1,0.3,0,0.3,0.2,0.5c0.2,0.4,0.2,0.8,0,1.2l0.4-0.3
					c0.1-0.6,0.1-0.7-0.2-1.2c-0.1-0.6,0.1-1.5-0.2-2.4c-0.1-0.1-0.2-0.1-0.3,0.1C89.1,44.6,89,45.5,88.9,46z M86.5,44.9
					c0.2,1-0.1,1.1-0.1,2c-0.1,0.7,0,1.4,0,1.5l0.3-0.1l0-1.2c0-0.2,0.4-1.2,0.2-2.4C86.7,44.8,86.5,44.7,86.5,44.9z"/>
				<path class="st5" d="M86.5,44.3l0.2-0.3c-1.6-2-3.5-3.4-6.4-3.2c0,0-0.4,0.3-0.7,0.5C82.2,40.7,84.8,42.1,86.5,44.3z M87,43.8
					l2.8-1.4c-1.3-2.2-3.4-3.9-4.8-3.8c-1.2,0.4-3.3,1.3-4.3,1.9C83.5,40.3,85.6,41.8,87,43.8z M78.7,64.1l2.9,1.7
					c5.2-0.9,6.5-4.1,6.4-7.3c-0.1-2.1-3.6-7.2-4.8-8.7c-2-2.5-2.4-5.7-1.6-8c-0.5-0.2-1.6-0.1-2.1,0c-0.9,1.2-1.2,5.6,1.6,9.5
					c0.9,1.3,2,2.5,3.2,5.4C85.4,59.5,84,63.1,78.7,64.1z M65.6,51.8c1.4,5.6,3.7,9.7,6.4,11.7c2.1,1.9,5.1,2.5,7.5,2.6
					c-6.1-3.3-9.7-8.4-10.4-14.6C67.8,51.6,66.8,51.7,65.6,51.8z M80.2,65.9l0.9-0.1c-7.5-3.5-10.5-9.1-11.1-14.7l-0.4,0.1
					C70.2,56.6,72.7,62.1,80.2,65.9z"/>
			</g>
			<path class="st6" d="M19.2,119.3l-9.4-0.7l0.8,28.7c-0.2,1.7,0.3,5.2,0.2,7.5c0.3,0.9,0.2,2.7,0.1,3.5c-1.1,3.9-1.5,4.2-0.3,8.6
				c0.7,3.1,0.9,4.3,0.4,6.6c-3.3,5.5,10.8,4,10.7,2.4c1-2.5,1.1-4.5,0.4-6.7l0.3-1.8L22,144.8c0.4-3,0.5-3.6,0.7-9.1
				c0.2-2.6,1-6.3,1.2-8.6l3.3-8.4l-5.6,1C21.4,120.3,19.8,119.8,19.2,119.3z M115.9,158.3c-0.2-0.8-0.2-2.6,0.1-3.5
				c0-2.3,0.5-5.8,0.2-7.5l0.8-28.7l-9.4,0.7c-0.6,0.6-2.2,1-2.4,0.6l-5.5-1l3.3,8.4c0.2,2.3,1,6,1.2,8.6c0.2,5.5,0.3,6,0.7,9.1
				l-0.4,22.5l0.3,1.8c-0.7,2.2-0.6,4.2,0.4,6.7c-0.1,1.6,14,3.2,10.7-2.4c-0.5-2.4-0.4-3.6,0.4-6.6
				C117.3,162.5,117,162.2,115.9,158.3z"/>
			<path class="st7" d="M19.8,164.3l0.2-1.1l0.6-14.2l1-0.8c-0.2-3.6-0.8-10.6-0.6-15c0-3,0.1-2.5,0.3-4.9c0.4-1.7,0-1.9,0.6-4
				c0-1.7,0.4-3.7,0.4-4.8c-0.9,0-2.5,0-3-0.2l-8.4-1.3l0.1,29.3c0.3,2.1,1.2,9,0.5,11.4c-0.9,3-0.6,5.1,0.1,7.9
				c0.5,2.5,0.6,4.6,0,6.6c-0.2,1.5-1,2.2,1,2.6c2.2,0.3,5.5,0.6,7.4-0.2c0.8-1.4,0.2-4,0.2-4.4C19.3,169.4,19.3,166.1,19.8,164.3z
				 M21.5,132.1c-0.1,2,0,4.4-0.1,6.5c0,0.5,0,1,0.1,1.5l0.3,2.6c0.2,0.6,0.4-0.7,0.4-1.4c0-0.4,0-0.9,0-1.3c0-0.4,0.1-0.7,0.1-1.1
				c-0.2-2,0-3.9,0.2-5.7c0.3-2.4,1.7-9.7,1.9-11.3l-0.8-2.8C22.8,121.6,21.5,129.8,21.5,132.1z M21.3,165.5l-0.8-0.5
				c-0.2,1.1-0.3,3.4,0.3,5.2c0.7,2,0.4,5,0.4,5.1c0.8-0.4,0.8-2.9,0.2-5.5C21.1,168.8,21,166.1,21.3,165.5z M115.1,166.7
				c0.7-2.9,1-4.9,0.1-7.9c-0.7-2.4,0.2-9.3,0.5-11.4l0.1-29.3l-8.4,1.3c-0.6,0.2-2.1,0.2-3,0.2c-0.1,1.1,0.4,3.1,0.4,4.8
				c0.6,2.2,0.2,2.3,0.6,4c0.2,2.4,0.3,1.9,0.3,4.9c0.2,4.4-0.4,11.4-0.6,15l1,0.8l0.6,14.2l0.2,1.1c0.5,1.8,0.5,5.1-0.4,7
				c-0.1,0.4-0.6,3.1,0.2,4.4c2,0.8,5.2,0.5,7.4,0.2c2-0.4,1.3-1.1,1-2.6C114.5,171.3,114.6,169.2,115.1,166.7z M105.2,140.1
				c0.1-0.5,0.1-1,0.1-1.5c-0.1-2.1,0-4.5-0.1-6.5c0-2.2-1.4-10.5-2-12.9l-0.8,2.8c0.2,1.5,1.5,8.8,1.9,11.3
				c0.2,1.9,0.4,3.8,0.2,5.7c0,0.4,0,0.7,0.1,1.1c0,0.4,0,0.9,0,1.3c0,0.7,0.2,2,0.4,1.4L105.2,140.1z M106.3,165l-0.8,0.5
				c0.3,0.6,0.2,3.2-0.1,4.2c-0.7,2.6-0.6,5.1,0.2,5.5c0,0-0.2-3,0.4-5.1C106.6,168.4,106.5,166.1,106.3,165z"/>
			<path class="st8" d="M106.6,169.3C106.6,169.3,106.7,169.3,106.6,169.3C106.7,169.2,106.7,169.2,106.6,169.3z"/>
			<g>
				<path class="st0" d="M24.3,84.6C10,85.1-2.6,99.7,7.3,114c-1.6,0.5-2.3,1.5-1.9,2.8c-1.6,0.4-1.9,1.2-1.4,2.5l1.8,2.5
					c0.9,0.2,1.7,0.2,1.8-0.4l12.6-0.1c1.3,0.4,2.7,0.3,4.1,0.1l-0.8-3.2l-1.8,0.2l2.2-1.8l-0.5-3l0-8.7l-2.9-4
					c-0.2-1.4-1.2-1.9-3.1-1.4c-2.3-5.4,1.4-9.3,6.1-9L24.3,84.6L24.3,84.6z M9.6,103.9c-0.1-3.5,0.9-6.5,3-8.4
					c0.1,2.1,0.9,3.8,2.2,5.1C13,101,11.1,102.2,9.6,103.9L9.6,103.9z M12,109.7c-0.3-3.5,1.6-4.8,5.1-4.7l1.2,1.7
					c1.4,0.4,2.1-0.1,2.5-1.1c0.4,0.3,0.9,0.3,1.4,0.1c-0.5,0.6-0.5,1.1-0.2,1.7c-2.1,1.2-1.4,4.2,1.5,2.6l0,0.9l-0.9,1
					C19.8,114.8,14.6,117.9,12,109.7z"/>
				<path class="st1" d="M4.8,117.5c0.4,0,0.7,0.3,0.7,0.7c0,0.4-0.3,0.7-0.7,0.7c-0.4,0-0.7-0.3-0.7-0.7
					C4.1,117.9,4.5,117.5,4.8,117.5L4.8,117.5z M4.6,119.5l1.2,1.7c0.7,0.6,1.7,0.1,1.7-0.9l-1.6-1.9C5.9,119.4,5.1,119.7,4.6,119.5
					L4.6,119.5z M6.4,118.1c0.2,0.1,1.5,0.7,2.3-0.3l-0.2,2c-0.1,1.1-0.3,0.9-0.7,0.3L6.4,118.1L6.4,118.1z M6.4,115
					c-0.7,0.6-0.9,1.6-0.3,2.3c0.6,0.7,1.6,0.8,2.4,0.2c0.7-0.6,0.9-1.6,0.3-2.3C8.2,114.4,7.1,114.4,6.4,115L6.4,115z M21.5,108
					c0.6-0.4,1.4-0.4,1.8,0.1c0.4,0.5,0.3,1.3-0.3,1.8c-0.6,0.4-1.4,0.4-1.8-0.1C20.8,109.2,20.9,108.5,21.5,108L21.5,108z
					 M22.5,105.7c-0.6,0.4-0.7,1.2-0.3,1.8c0.4,0.5,1.2,0.6,1.8,0.1c0.6-0.4,0.7-1.2,0.3-1.8C23.9,105.3,23.1,105.2,22.5,105.7
					L22.5,105.7z M19.8,102.1c0.4,0,0.7,0.3,0.7,0.7c0,0.4-0.3,0.7-0.7,0.7c-0.4,0-0.7-0.3-0.7-0.7
					C19.1,102.4,19.4,102.1,19.8,102.1L19.8,102.1z M19.9,104.2c0.8,0,1-0.4,1.1-1.3l1.1,1.2c-0.1,0.8-0.1,1.4-1,1.2L19.9,104.2
					L19.9,104.2z M17.5,104.9l1,1.3c0.9,0.2,1.6-0.4,1.5-1.3l-1.2-1.2C18.6,104.3,18.1,104.7,17.5,104.9L17.5,104.9z M10.2,110
					c0.5-0.1,0.9-0.3,1.4-0.3c-0.4-3.2,1.2-4.9,4.7-5.1c-0.4-0.6-0.6-1.1-0.4-1.7C11.9,103.2,10.1,105.6,10.2,110L10.2,110z
					 M17,99.6c-5.1-5-0.2-11.1,5.3-10.1l0.1,0.6C16.6,90.7,15.3,95.3,17,99.6L17,99.6z M8.4,105.7c-1.1-4.8,0.3-9.2,4.5-13.1
					l-0.4,2.6c-2.3,2.3-3.3,5.3-3.1,9L8.4,105.7L8.4,105.7z M23.6,86.9C10,86.3,0.5,103.1,9.3,112.5c-0.2-1,0-1.8,0.8-2.4
					c-0.3-4.1,1.1-7,6.3-7.7c-1.1,3.2,3.1,1.7,1.9-0.4c2.3-0.3,1.7-3.6-0.6-1.7c-6.3-4.4-2.1-12.5,5.9-11.2L23.6,86.9L23.6,86.9z
					 M8.5,107.5c-2.5-6.2-0.3-11.7,5.7-16.7c-2.1,3.4-1.7,6.9,1,10C10.9,102.3,8.8,104.5,8.5,107.5L8.5,107.5z M23.7,85.3l-0.2,0.8
					c-12.9,0.5-24.2,15.3-14.2,27.5v1.3C-0.8,106.1,5.1,86.4,23.7,85.3L23.7,85.3z M20.9,120.8l-0.1,0.3c0.9,0.3,1.8,0.2,2.6,0
					l0-0.4C22.5,121.2,21.6,120.8,20.9,120.8L20.9,120.8z M21.1,118.8l-0.2,1.7c0.8,0.3,1.7,0.3,2.5,0.1v-2.1
					C22.7,118.8,21.9,118.8,21.1,118.8L21.1,118.8z M21.1,117.9l0,0.4l2.5-1.7l0-0.5L21.1,117.9L21.1,117.9z M21.1,116.1l0,1.5
					l2.4-1.7v-1.9L21.1,116.1L21.1,116.1z M21.1,115.9c0-2.1,0.8-3.6,2.4-4.2l0.1,2.1L21.1,115.9z"/>
			</g>
			<g>
				<path class="st2" d="M102.4,84.6l0.9,5.9c4.8-0.2,8.4,3.6,6.1,9c-1.9-0.5-2.9,0-3.1,1.4l-2.9,4l0,8.7l-0.5,3l2.2,1.8l-1.8-0.2
					l-0.8,3.2c1.4,0.2,2.8,0.3,4.1-0.1l12.6,0.1c0.1,0.6,0.9,0.7,1.8,0.4l1.8-2.5c0.5-1.3,0.2-2.1-1.4-2.5c0.3-1.3-0.3-2.3-1.9-2.8
					C129.3,99.7,116.7,85.1,102.4,84.6L102.4,84.6z M117.1,103.9c-1.5-1.7-3.4-2.9-5.2-3.3c1.4-1.3,2.1-3,2.2-5.1
					C116.2,97.4,117.2,100.4,117.1,103.9L117.1,103.9z M104.2,111.8l-0.9-1l0-0.9c2.9,1.6,3.7-1.4,1.5-2.6c0.3-0.6,0.2-1.1-0.2-1.7
					c0.5,0.2,1,0.2,1.4-0.1c0.4,1,1.1,1.5,2.5,1.1l1.2-1.7c3.4-0.1,5.3,1.2,5.1,4.7C112.1,117.9,106.9,114.8,104.2,111.8z"/>
				<path class="st3" d="M121.9,117.5c0.4,0,0.7,0.3,0.7,0.7c0,0.4-0.3,0.7-0.7,0.7s-0.7-0.3-0.7-0.7
					C121.2,117.9,121.5,117.5,121.9,117.5L121.9,117.5z M122.1,119.5c-0.6,0.2-1.4-0.1-1.3-1l-1.6,1.9c0,1,1,1.5,1.7,0.9
					L122.1,119.5L122.1,119.5z M120.3,118.1l-1.4,2c-0.4,0.6-0.6,0.8-0.7-0.3l-0.2-2C118.8,118.8,120.1,118.2,120.3,118.1
					L120.3,118.1z M120.3,115c-0.7-0.6-1.8-0.5-2.4,0.2c-0.6,0.7-0.4,1.7,0.3,2.3s1.8,0.5,2.4-0.2
					C121.2,116.6,121.1,115.5,120.3,115L120.3,115z M105.2,108c0.6,0.4,0.7,1.2,0.3,1.8c-0.4,0.5-1.2,0.6-1.8,0.1
					c-0.6-0.4-0.7-1.2-0.3-1.8C103.8,107.6,104.6,107.6,105.2,108L105.2,108z M104.2,105.7c-0.6-0.4-1.4-0.4-1.8,0.1
					c-0.4,0.5-0.3,1.3,0.3,1.8c0.6,0.4,1.4,0.4,1.8-0.1S104.7,106.1,104.2,105.7L104.2,105.7z M106.9,102.1c0.4,0,0.7,0.3,0.7,0.7
					c0,0.4-0.3,0.7-0.7,0.7c-0.4,0-0.7-0.3-0.7-0.7C106.2,102.4,106.5,102.1,106.9,102.1L106.9,102.1z M106.7,104.2l-1.2,1
					c-0.9,0.2-0.9-0.4-1-1.2l1.1-1.2C105.8,103.8,106,104.2,106.7,104.2L106.7,104.2z M109.2,104.9c-0.6-0.2-1-0.6-1.3-1.3l-1.2,1.2
					c-0.1,0.9,0.7,1.6,1.5,1.3L109.2,104.9L109.2,104.9z M116.4,110c0.2-4.3-1.7-6.8-5.7-7.1c0.2,0.6,0,1.1-0.4,1.7
					c3.5,0.2,5.1,1.9,4.7,5.1C115.5,109.7,116,109.8,116.4,110L116.4,110z M109.7,99.6c1.8-4.3,0.4-8.8-5.4-9.5l0.1-0.6
					C109.8,88.4,114.7,94.5,109.7,99.6L109.7,99.6z M118.3,105.7l-0.9-1.5c0.2-3.7-0.8-6.7-3.1-9l-0.4-2.6
					C118,96.5,119.3,100.9,118.3,105.7L118.3,105.7z M103.1,86.9l0.1,2.2c8-1.3,12.3,6.8,5.9,11.2c-2.4-1.9-2.9,1.5-0.6,1.7
					c-1.2,2.1,3,3.6,1.9,0.4c5.2,0.7,6.7,3.6,6.3,7.7c0.7,0.6,1,1.4,0.8,2.4C126.2,103.1,116.7,86.3,103.1,86.9L103.1,86.9z
					 M118.2,107.5c-0.3-2.9-2.4-5.2-6.7-6.7c2.7-3.1,3.1-6.6,1-10C118.5,95.7,120.7,101.3,118.2,107.5L118.2,107.5z M103,85.3
					c18.6,1.2,24.5,20.9,14.5,29.6v-1.3c10-12.2-1.3-27-14.2-27.5L103,85.3L103,85.3z M105.8,120.8c-0.7,0.1-1.5,0.4-2.5,0l0,0.4
					c0.8,0.2,1.8,0.2,2.6,0L105.8,120.8L105.8,120.8z M105.6,118.8c-0.8,0-1.5,0-2.4-0.3v2.1c0.8,0.2,1.7,0.2,2.5-0.1L105.6,118.8
					L105.6,118.8z M105.6,117.9l-2.5-1.8l0,0.5l2.5,1.7L105.6,117.9L105.6,117.9z M105.6,116.1l-2.4-2.1v1.9l2.4,1.7L105.6,116.1
					L105.6,116.1z M103.2,113.8l0.1-2.1c1.5,0.7,2.3,2.2,2.4,4.2L103.2,113.8z"/>
			</g>
			<path class="st9" d="M117.9,117.9c-0.3-1.9-0.5-3.5-0.5-5.6c0-2.2-1.3-3.3-4-2.1c-1.8,2-4,2-6.5,1.4c-1.4-0.4-2.7,0-2.9,0.4
				c0.8,0.5,1.2,1.3,1.4,2.4c0.2,1.1,0.2,2.5,0.1,4c0.1,0.9,0.3,1.9,0.4,2.8c0.7,2.1,0.5,4.6,0.4,6.2c-0.7,2.2-0.5,6-0.4,8
				c-0.2,1.7-0.6,2.9-1,3.9c-0.1,0.9-0.2,1.8-0.3,2.7l-2.1,3.5c-0.2,0.5-0.2,1-0.2,1.5l-1.7,2.7c-1.6,1.2-2.7,2.8-3.5,4.7
				c-1.2,1-2.1,1.5-2.9,3.2c-0.8,0.8-1.8,1.7-2.3,2c-1.3,0.8-1.6,1.4-1.8,1.8c-1.6,0.7-3.1,1.7-4.7,2.9c-1.6,0.9-3.2,1.8-4.9,2.2
				c-3,0.4-4.8,1-6.4,2.3c-0.9,0.9-2.5,1.2-4.5,1.1c-2.5,0.4-4.3,0.9-5.8,1.3c-0.1,0-0.7,0-0.9,0c-1.5-0.4-3.3-0.9-5.8-1.3
				c-2.1,0.1-3.7-0.2-4.5-1.1c-1.6-1.3-3.4-1.8-6.4-2.3c-1.6-0.5-3.2-1.3-4.8-2.2c-1.5-1.1-3.1-2.1-4.7-2.9
				c-0.2-0.4-0.5-1.1-1.8-1.8c-0.5-0.3-1.5-1.2-2.3-2c-0.9-1.7-1.7-2.2-2.9-3.2c-0.8-1.9-1.9-3.5-3.5-4.7l-1.7-2.7
				c0-0.5,0-1-0.2-1.5l-2.1-3.5c-0.1-0.9-0.2-1.7-0.3-2.7c-0.4-1-0.8-2.2-1-3.9c0-2,0.2-5.8-0.4-8c-0.1-1.7-0.3-4.1,0.4-6.2
				c0.1-0.9,0.2-1.9,0.4-2.8c-0.1-1.5-0.1-2.9,0.1-4c0.2-1.1,0.6-2,1.4-2.4c-0.2-0.4-1.5-0.7-2.9-0.4c-2.4,0.6-4.7,0.6-6.5-1.4
				c-2.7-1.2-4.1-0.1-4,2.1c0,2.1-0.2,3.7-0.5,5.6c-0.3,2.3-0.3,5-0.3,7c0.2,2.4,0.6,3.9,0.9,6.2c-0.4,3.4-0.7,5.4-0.3,8.7
				c0.5,2.1,0.7,4.1,3.1,8.3c1.2,2.2,2.4,4.5,3.4,7.4c1.1,2.4,2.5,4.8,4.8,7.4c2.2,1.3,4.1,3.3,5.6,5.8c1.3,1.7,3.2,3.3,6,4.7
				c1.8,1.8,3.5,2.9,5.9,3.9c2.1,1.1,3.4,1.8,5.6,2.2c1.5,0.3,2.5,0.6,4.1,1.3c0.9,0.5,2.3,1.2,4,1.4c1.3,0.2,2.9,0.7,3.8,0.8
				c2.2-0.1,4.2-0.1,4.8,0.4c1,0.4,5.1,0.4,6.1,0c0.6-0.6,2.6-0.6,4.8-0.4c0.9-0.1,2.5-0.6,3.8-0.8c1.7-0.3,3.1-0.9,4-1.4
				c1.5-0.7,2.5-1,4.1-1.3c2.2-0.4,3.5-1.1,5.6-2.2c2.5-1,4.1-2.1,5.9-3.9c2.8-1.4,4.7-3,6-4.7c1.5-2.6,3.4-4.5,5.6-5.8
				c2.3-2.6,3.7-5,4.8-7.4c1-2.8,2.1-5.2,3.4-7.4c2.4-4.2,2.6-6.2,3.1-8.3c0.4-3.2,0.1-5.3-0.3-8.7c0.4-2.4,0.7-3.9,0.9-6.2
				C118.2,122.9,118.2,120.1,117.9,117.9z"/>
			<path class="st8" d="M19.9,119.7c-0.1,1.3-0.2,2.2-0.6,3.1c-0.4,1.8-0.4,3.5,0,5.2v0c0.3,1.3,0.6,1.5,0.5,5.1
				c0.1,1.3,0,2.6,0.3,3.8c0.1,1.4,0.4,2.8,0.9,3.9c0.2,1.5,0.8,2.8,1.5,3.6c0.4,0.9,1.1,1.2,1.2,2.7c0.4,1.4,1,2.5,1.9,3.2
				c0.8,0.8,1.4,1.6,1.8,3.1c0.2,0.7,0.8,1.4,1.4,1.9c1,2,2.1,3.2,3.5,4c1.8,2.1,3.9,3.4,6.1,4.5c2.1,1.4,4,2.3,6.1,3.2
				c2.8,1.4,5.6,2.7,8.4,3.6l4.5,0.7l5.6,1.2c0.1,0.1,0.5,0.1,0.6,0l5.6-1.2l4.5-0.7c2.9-0.8,5.7-2.1,8.4-3.6c2.1-0.9,4-1.8,6.1-3.2
				c2.1-1.1,4.2-2.4,6.1-4.5c1.5-0.8,2.5-2,3.5-4c0.6-0.5,1.2-1.2,1.4-1.9c0.4-1.5,1-2.3,1.8-3.1c0.9-0.7,1.6-1.8,1.9-3.2
				c0.1-1.5,0.8-1.8,1.2-2.7c0.7-0.8,1.3-2.1,1.5-3.6c0.5-1.1,0.8-2.5,0.9-3.9c0.2-1.2,0.1-2.5,0.3-3.8c0-3.6,0.3-3.8,0.5-5.1v0
				c0.4-1.7,0.4-3.4,0-5.2c-0.4-0.9-0.5-1.8-0.6-3.1v-5.8c-0.3-1.4-0.8-2.1-1.7-1.7c1,1.6,1.3,3.4,1.1,5.4c-0.1,1.4,0.1,2.7,0.4,3.9
				c0.4,2.1,0.5,3.9,0.4,5.3c-0.5,1.9-0.7,4.8-0.6,8.9c-0.4,1.7-0.9,3.2-1,4.5c-0.1,1.5-0.5,3.1-1.8,4.6c-0.6,0.7-0.9,1.3-0.6,1.8
				l-2.2,3.6c-1.1,0.8-2,2-2.5,3.4c-1.7,1.6-2.7,2.7-3.2,3.6c-0.5,0.9-1.3,1.5-2.3,2.2c-1,0.6-1.9,1.5-2.7,2.5
				c-1.6,0.6-2.9,1.4-4,2.4c-1.5,1-3.7,2-5.2,2.5c-2.7,0.5-4.6,1.1-6.6,2.3c-1.3,0.8-2.6,1.2-3.9,1.2c-2,0.1-3.7,0.6-5.2,1.2
				c-0.6,0.2-3,0.2-3.6,0c-1.5-0.5-3.2-1.1-5.2-1.2c-1.4,0-2.6-0.4-3.9-1.2c-2-1.2-3.9-1.9-6.6-2.3c-1.4-0.5-3.7-1.5-5.2-2.5
				c-1.1-1-2.4-1.8-4-2.4c-0.8-0.9-1.7-1.8-2.7-2.5c-1-0.7-1.8-1.3-2.3-2.2c-0.5-0.9-1.5-2-3.2-3.6c-0.4-1.4-1.4-2.6-2.5-3.4
				l-2.2-3.6c0.2-0.5,0-1.2-0.6-1.8c-1.3-1.5-1.7-3.1-1.8-4.6c0-1.4-0.5-2.9-1-4.5c0.1-4.2-0.1-7-0.6-8.9c-0.2-1.4,0-3.2,0.4-5.3
				c0.3-1.2,0.5-2.5,0.4-3.9c-0.3-2,0.1-3.8,1.1-5.4c-0.9-0.4-1.4,0.2-1.7,1.7L19.9,119.7L19.9,119.7z M116.9,116.5
				c-0.3-1.5-0.3-3.1-0.2-4.8c-0.4-1.9-2.8-2.1-3.6-0.2c-0.9,0.9-4.6,1-6.7,0.6c0.8,1.4,1.3,2.8,0.9,4.5c-0.3,1.4-0.2,2.8,0.3,4.1
				c0.6,2.4,0.7,4.8,0.4,7.2c-0.2,0.8-0.4,1.9-0.6,3.6c0.2,1.4,0.1,3-0.2,4.7c-0.1,2-0.4,3.8-1,4.7c-0.2,1.2-0.9,2.7-1.3,3.4
				c-0.9,0.9-1.3,1.7-1.2,2.3c-0.3,1.4-0.8,2.4-1.7,3.2c-1.2,1.1-1.9,2.2-2,3.2c-0.3,1.1-1,2-2.1,3.2c-0.4,1-1.2,1.9-2.1,2.7
				c-0.8,0.4-1.6,1-2.3,1.7c-1.4,1.5-2.6,2.3-4,2.9c-1.9,1.4-3.9,2.4-6,3.3c-2.2,1-4.4,2-6.6,3.2c-1.9,0.7-3.7,1.1-5.4,1.3
				c-2.2,0.3-4.3,0.8-6.1,1.3c-0.7,0.3-3.1,0.3-3.8,0c-1.9-0.6-3.9-1-6.1-1.3c-1.7-0.3-3.4-0.6-5.4-1.3c-2.3-1.1-4.5-2.2-6.6-3.2
				c-2.1-0.9-4.1-1.9-6-3.3c-1.4-0.6-2.6-1.4-4.1-2.9c-0.7-0.8-1.5-1.3-2.3-1.7c-0.9-0.8-1.7-1.7-2.1-2.7c-1.1-1.2-1.8-2.1-2.1-3.2
				c-0.2-1-0.9-2-2-3.2c-0.9-0.7-1.5-1.7-1.7-3.2c0.1-0.7-0.3-1.4-1.2-2.3c-0.5-0.7-1.1-2.2-1.3-3.4c-0.6-0.9-0.8-2.7-1-4.7
				c-0.3-1.7-0.4-3.3-0.2-4.7c-0.3-1.7-0.5-2.8-0.6-3.6c-0.3-2.3-0.2-4.7,0.4-7.2c0.5-1.3,0.5-2.7,0.3-4.1c-0.4-1.7,0-3.2,0.9-4.5
				c-2.1,0.4-5.8,0.3-6.7-0.6c-0.8-1.9-3.2-1.8-3.6,0.2c0.1,1.6,0.1,3.3-0.2,4.8C9,120.8,9,124,9.9,128.7c0.3,1.4,0.4,3.1,0.2,5.2
				c-0.6,5.6,0.4,10.2,2.9,13.9l4,8.4c1.2,2.4,2.5,4.6,4,6c2.2,1.6,4.1,3.3,5.7,5.5c1.9,1.8,3.8,3.7,6,5.2c3.1,2.1,5.9,4.3,11.2,5.8
				c2.1,0.5,4.1,1.3,6.2,2.2c1.5,0.6,3,0.8,4.6,0.8c2,0,4,0.2,6,0.8c1,0.3,4.7,0.3,5.6,0c1.9-0.6,3.9-0.8,6-0.8c1.5,0,3-0.2,4.6-0.8
				c2.1-0.9,4.1-1.7,6.2-2.2c5.2-1.5,8.1-3.7,11.2-5.8c2.1-1.5,4.1-3.3,6-5.2c1.5-2.2,3.5-4,5.7-5.5c1.6-1.3,2.8-3.5,4-6l4-8.4
				c2.5-3.7,3.5-8.3,2.9-13.9c-0.2-2.1-0.2-3.8,0.2-5.2C117.7,124,117.7,120.8,116.9,116.5z"/>
			<path class="st10" d="M20.4,142.9l-8.2-0.8c-0.7,0.1-0.8,0.6-0.1,0.9l1.5,0.3l1.8,5l-0.6,0.9c-0.2,0.5,0.1,1,0.8,0.7l5.5-6.1
				C21,143.5,20.9,143.2,20.4,142.9z M16.4,146.9l-1.1-3.4l3.7,0.3L16.4,146.9z M23.5,148.9c-0.6-0.7-1-0.4-0.9,0.5l-5.2,3.7
				c-0.5-0.9-1.4-0.3-0.8,0.5c2.2,4.2,3.9,5.3,5.4,4.9c1.9-0.3,3.1-1.5,3.9-3c0.1-0.3,0.1-0.7,0.1-1
				C25.6,152.1,24.6,150.5,23.5,148.9z M24.4,154.9c-0.4,1.3-1.3,2.1-3.3,1.9c-1.3,0-2.3-1.2-3.1-2.8l5.3-3.7c0.5,0.9,1,1.8,1.2,2.9
				C24.6,153.8,24.6,154.4,24.4,154.9z M37.9,165.5l-5,2c-0.7,0.5-0.9,0.3-0.7-0.4l0.7-5.2c-0.1-1.1-0.9-0.8-1.2,0.3
				c-0.5,1.3-0.9,2.9-1,4.7l-0.4,1.8c-0.2,1,0.1,1.4,0.9,1.1c2.5-1.2,4.8-2.3,7.2-3.3C39,166,38.7,165.3,37.9,165.5z M48.2,169.9
				l-6-2.8c-0.5-0.2-0.7,0.1-0.5,0.8l0.5,0.4l-2.8,6.4l-0.8-0.4c-0.5-0.3-1.1,0.1-0.5,0.7c1.7,1.5,3.6,2.7,6.3,3.1
				c1.1,0.1,1.3-0.8,0.1-1.1c-1.2-0.3-2.4-0.8-3.8-1.7l1-2.1c0.7,0.5,1.4,0.8,2.1,0.7c0.5,0,0.9,0.1,1.3,0.3
				c0.5,0.4,1.1,0.7,1.7,0.9c0.9,0.3,1.4-0.2,0.8-1l-1.7-0.9c-0.6-0.4-1.3-0.5-2-0.5c-0.6,0-1.2-0.2-1.7-0.9l1.3-2.7l4.1,2
				C48.4,171.2,48.9,170.4,48.2,169.9z M58.1,178.9c-0.5,0.7-1.4,0.8-2.8,0.5l-1.4-1.5l1.4-0.1c2.3-0.5,3.2-2.9,0.9-4.6
				c-1.8-0.9-3.5-1.6-4.9-1.9c-0.9-0.1-1.2,0.6-0.4,1.1l-1.6,6c-0.1,1.2,0.6,1.3,0.9,0.6l0.5-1.6c1.1,0.4,2,1.3,3.5,2.9
				c1.2,1,3.1,0.7,4.4-0.4C60,179.6,58.6,177.8,58.1,178.9z M51.2,176.2l0.8-3.5C57.8,174.2,58.7,178.1,51.2,176.2z M67,173.8
				c-1.1,1.8-1.8,3.5-2.3,5.1c-0.1,0.4-0.2,0.7-0.5,0.1c-1-1.4-1.9-3.2-2.7-5.1c-0.5-1.2-1.5-0.9-1.1,0.5c1.1,2.5,2.4,4.7,3.8,6.7
				c0.5,0.8,0.9,0.5,1.2-0.3c0.4-1.2,1-2.5,1.7-3.7c0.6-1,1.1-2.1,1.5-3.1C68.8,172.7,67.8,172.5,67,173.8z M78.8,171.6
				c-0.5-0.5-1.2-0.4-1.4,0.4l-1.1,5.1c-0.1,0.5-0.1,0.6-0.4,0.2l-3.2-4.4c-0.5-0.5-0.8-0.3-1,0.5l-1.2,6.3c0.1,0.5,0.5,0.9,1,0
				l0.9-4.4c0-0.6,0.2-0.7,0.6-0.2l2.7,4c0.4,0.5,0.7,0.3,1.1,0c0.2-0.2,0.5-0.8,0.8-1.6l0.8-3.6c0.2-0.7,0.4-0.1,0.5-0.2l2.4,4.4
				c0.5,0.8,1.4,0.3,0.9-0.8C81,175.2,79.9,173.4,78.8,171.6z M90,165.5c-1.6,0.2-3.3,1.1-5,2.3c-0.6,0.5-0.4,1.3,0.4,1.2l0.6-0.3
				l2.6,5c-1,0.7-0.6,1.9,0.4,1c1.6-0.9,3.1-1.8,4.8-2.9C96.6,168.8,95.1,164.4,90,165.5z M91.7,171.9l-2.3,1.1l-2.5-5.1
				c1.2-0.8,2.4-1.4,3.8-1.6C93.8,166.3,95.3,170.4,91.7,171.9z M98,158.2c-0.3-0.6-1.1-0.2-0.9,0.3l1.8,5.3
				c0.3,0.5,0.2,0.6-0.3,0.4l-5.4-1.7c-0.5-0.3-1.4,0.8-0.4,1.2c2.4,1,4.7,1.8,7,2.3c0.9,0.1,1.1-0.3,0.8-0.8
				C99.8,162.7,98.9,160.4,98,158.2z M106.6,154.9c0.9,3-0.3,4.3-2.6,4.1c-4.3-1.4-4-5.4-0.4-5.3l0.7-0.9l-1.3-1.5
				c-0.8-0.8-1.4,0.1-0.7,0.8l0.4,0.5c-4.6,0.9-3.4,5.1-0.7,6.7c2.8,1.7,7.2,0.4,5.9-4.5C107.9,153.9,106.2,153.5,106.6,154.9z
				 M110.3,151.3c-1.9-1.3-3.9-2.4-5.8-3.2c-0.9-0.1-1.3,0.8-0.5,1.4l5.9,2.9C111.1,152.8,111.2,151.9,110.3,151.3z M107.7,143.4
				l1.4-3.1c0.6-0.9-0.5-1.5-1-0.6l-3.1,6.4c-0.3,0.8,0.2,1.6,0.8,0.9l1.3-2.5l5.4,2.3l0.5-0.9L107.7,143.4z"/>
			<g>
				<path d="M22.7,57.8h40.7H104c0.3,0,0.5,0.2,0.5,0.5v65.6c0,0.1,0,0.1,0,0.2c-3.7,11.9-9.1,20.3-16,25.7
					c-6.9,5.5-15.2,8.1-24.6,8.6c0,0,0,0-0.1,0l-0.3,0l-0.1,0l-0.1,0c-0.1,0-0.2,0-0.4,0h0l0,0c-9.3-0.5-17.7-3.2-24.6-8.6
					c-6.9-5.5-12.4-13.8-16-25.7c0,0,0-0.1,0-0.1V58.3C22.2,58,22.4,57.8,22.7,57.8z"/>
				<path class="st10" d="M22.7,58.3h40.7h39.1v64c-7.2,23.7-21.7,33-40.2,34c-0.2,0-0.3,0-0.5,0c-0.2,0-0.3,0-0.5,0
					c-10.4-0.6-19.5-3.8-26.8-10.7c-4.9-5.2-8.9-12.4-11.8-21.7L22.7,58.3L22.7,58.3z"/>
				<path class="st4" d="M23.9,124.5h25.7V58h26.8v66.5h26.9c-4.3,13.4-11,21.9-19.5,27H42.2c-2.3-1.4-4.5-3-6.5-4.9
					c-4.9-5.2-8.9-12.4-11.8-21.7C23.9,124.8,23.9,124.5,23.9,124.5z"/>
				<path class="st5" d="M22.7,123.5h25.7V56.4h26.8v67.1H102c-4.3,13.4-11,21.9-19.5,27H40.9c-2.3-1.4-4.5-3-6.5-4.9
					c-4.9-5.2-8.9-12.4-11.8-21.7L22.7,123.5L22.7,123.5z"/>
				<g>
					<path class="st3" d="M57.4,85.8c0.9,0,1.1,1,0.7,2.9c-0.4,1.8-0.9,2.8-1.5,3.8c1.7-0.7,2.2-2.4,2.5-3.9
						c0.2-1.6,0.1-2.9,0.9-2.9c0.8-0.1,1.5,1.5,1.9,2c0.4-0.5,1-1.9,1.6-2c1.3-0.1,0.9,1.2,1.1,2.8c0.3,1.6,1.1,3.5,2.6,4.1
						c-0.6-0.8-3-6.4-1-6.7c0.5-0.1,1,0.3,1.1,0.7c0,1.1,0.1,2.5,0.1,3.6c0.1,1.3,0.6,2.2,1.7,2.4c0-0.2,0.6-0.4,0.9,0
						c1.1-0.5,0.9-1.5,0.4-1.5c0.9,0.9-1.5,1.1-1.1-0.2c0.1-0.3,0.2-0.7,0.6-0.8c0.5-0.2,0.6,0,1.1,0c-1-1.5-2.8-0.4-2.6,0.2
						c-0.9-0.5,0.5-1.9,0.9-1.8c-0.2-0.2-0.9-1.7-0.2-2.3c1.2-0.7,2,0.8,0.9,1.2c-0.1-0.2-0.1-0.3-0.1-0.5c-0.1-0.2-0.2-0.4-0.4-0.2
						c-0.4,0.5,0.6,1.4,1.5,1.9c0.6,0.5,1,1.3,1,1.3c0.3-1.3-0.6-2.4-1.3-3.4c-0.8-1-1.4-2.8-0.6-3.2c1.1-0.5,1.3,0.9,0.5,1.1
						c-0.1-0.9-0.2-0.7-0.4-0.5c0,0.5,0.5,1.1,1,1.9c1.2,1.6,1.3,2.6,1.5,3c-0.1-1.2-1.3-3.7,0-4c1.3-0.3,1.5,1.1,0.6,1.6
						c-0.1-0.8-0.4-1.3-0.6-0.8c-0.2,0.7,0.7,1.2,0.6,3.1c0.4-0.7,1-1,1.5-0.9c-0.7,0.5-0.8,1.7-1.7,3.3c-0.5,1.3-1.8,2.1-3,2.3
						c-0.3,0.5-1,0.5-1.3-0.1c-0.7,0.1-2.4-0.1-3.5-1c-1.8-1.4-2.2-3.6-2.5-4.8c-0.3,0.4-0.5,0.9-0.5,1.3c0.1,1.3,0.6,2.5,0.6,3.8
						c0.1,0.6,0,1.7-1.2,1.8c-0.5-0.1-0.9-0.7-1-1.4c0-2.3,0.8-4.2,0.7-4.2c0-0.5-0.5-1-0.6-1.3c-0.2,0.1-0.1,2.4-2.4,4.7
						c-1.1,1-2.5,1.3-3.8,1.1c-0.4,0.5-0.9,0.5-1.2,0c-0.9-0.1-1.6-0.5-2.2-1.2c-1.1-1.2-1.1-3.2-2.2-4.4c0.6-0.1,0.9,0.3,1.4,0.7
						c0.2-2,1.1-2.8,0.7-3c-0.4-0.3-0.7,0.4-0.6,0.9c-1.3-0.2-0.2-2.2,0.9-1.3c0.9,0.8-0.5,2.5-0.2,3.4c0.1-0.5,1.1-2.1,1.7-2.9
						c0.3-0.5,0.5-0.9,0.5-1c0.1-0.1,0.2-0.6,0.1-0.6c-0.2-0.1-0.3,0.3-0.3,0.6c-0.9-0.1-0.6-1.3,0.4-1.1c0.9,0.3,0.3,2-0.2,2.7
						c-1.4,1.6-2.2,3.6-1.8,4.1c0.3-0.9,1.7-1.9,2.2-2.1c0.2-0.2,0.6-0.7,0.5-1.2c-0.5-0.2-0.2,1-0.7,0.7c-1.3-0.9,0.8-1.8,1.1-1.1
						c0.3,0.8,0.1,1.6-0.4,2.1c0.7,0.1,1.9,1.3,0.9,1.9c-0.4-1.5-2.1-1-2.5-0.3c1-0.4,2,0.4,1.6,1.3c-1.1,1.2-1.6-0.3-1-0.5
						c-0.9-0.2-0.5,1.4,0.2,1.6c0.5-0.1,0.7-0.1,1,0.2c1-0.2,1.6-1,1.7-2.1c0.1-0.7,0.1-1.4,0.1-1.9C56.3,86.3,56.5,85.8,57.4,85.8
						L57.4,85.8z M61.7,90c-0.2,0.9-0.5,2.3-0.4,3.3c0,0.5,0.8,0.5,0.8,0C62.2,92.2,61.9,90.9,61.7,90L61.7,90z M57.5,84
						c-0.4,0-0.8,0.4-0.8,0.8c0,0.4,0.4,0.8,0.8,0.8c0.4,0,0.8-0.4,0.8-0.8C58.3,84.4,57.9,84,57.5,84L57.5,84z M60.1,83.9
						c-0.4,0-0.8,0.4-0.8,0.8c0,0.4,0.4,0.8,0.8,0.8s0.8-0.4,0.8-0.8C60.9,84.2,60.6,83.9,60.1,83.9L60.1,83.9z M63.3,83.9
						c-0.4,0-0.8,0.4-0.8,0.8c0,0.4,0.4,0.8,0.8,0.8s0.8-0.4,0.8-0.8C64.1,84.2,63.8,83.9,63.3,83.9L63.3,83.9z M66,84.1
						c-0.4,0-0.8,0.4-0.8,0.8c0,0.4,0.3,0.8,0.8,0.8c0.4,0,0.9-0.4,0.9-0.8C66.9,84.5,66.5,84.1,66,84.1L66,84.1z M61.8,76.8
						c1.3-0.1,0.6,5,0.5,5.8c0,0.6,0.3,1,0.8,1.1c1.4,0.3,1-2.5,1-3c0.1-0.8,1.2-2.5,2.4-3.4c-0.8,0.4-2.8,6.5-0.9,6.7
						c1.3,0.2,1.2-1.1,1-3c-0.1-1.1-0.1-3.3,1.2-3.8c0.1,0.7,0,0.4,0.1,0.7c0.2,0.5,1,0.7,1.4,0.2c0.7-1-0.1-1.8-1.3-2
						c-2.5-0.3-3.6,2.2-4.2,2.9c-0.4-2.3-1.3-3.3-2.2-3.1c-0.9,0.1-1.9,1-2.3,3.1c-0.6-0.7-1.8-3.2-4.3-2.9
						c-1.2,0.1-1.9,0.9-1.2,1.9c0.3,0.4,1.1,0.3,1.3-0.1c0.2-0.3-0.1-0.9,0.2-0.8c1.3,0.5,1.2,2.8,1.2,3.9c-0.1,1.5-0.7,2.7,0.6,2.9
						c1.3,0.1,1.2-2,0.8-3.8c-0.3-1.4-0.9-2.5-1.2-2.8c1.2,0.9,2,2.4,2.3,3.2c0.2,1.5-0.3,3.3,1,3.1c0.5-0.1,0.9-0.5,0.9-1.1
						C61,81.6,60.3,76.9,61.8,76.8L61.8,76.8z M66.8,72.6l0.4,0.7l0.8,0.2l-0.6,0.6l0.1,0.8l-0.8-0.4L66,75l0.1-0.8l-0.6-0.6
						l0.8-0.2L66.8,72.6L66.8,72.6z M66.8,73l-0.3,0.5l-0.6,0.1l0.4,0.4l-0.1,0.6l0.5-0.2l0.5,0.2L67.2,74l0.4-0.4L67,73.5L66.8,73
						L66.8,73z M64.4,73.1L64,73.8L63.1,74l0.6,0.6l-0.1,0.8l0.8-0.4l0.8,0.4L65,74.6l0.6-0.6l-0.8-0.2L64.4,73.1L64.4,73.1z
						 M64.4,73.5l0.3,0.5l0.6,0.1l-0.4,0.4l0.1,0.6l-0.5-0.2l-0.5,0.2l0.1-0.6l-0.4-0.4l0.5-0.1L64.4,73.5L64.4,73.5z M61.9,73.2
						l0.4,0.7l0.8,0.2l-0.6,0.6l0.1,0.8l-0.8-0.4l-0.8,0.4l0.1-0.8l-0.6-0.6l0.8-0.2L61.9,73.2L61.9,73.2z M61.9,73.5L61.6,74
						l-0.5,0.1l0.4,0.4l-0.1,0.6l0.5-0.2l0.5,0.2l-0.1-0.6l0.4-0.4L62.2,74L61.9,73.5L61.9,73.5z M59.4,73l0.4,0.7l0.8,0.2l-0.6,0.6
						l0.1,0.8l-0.8-0.4l-0.8,0.4l0.1-0.8L58.2,74l0.8-0.2L59.4,73L59.4,73z M59.4,73.4l-0.3,0.5L58.6,74l0.4,0.4L58.9,75l0.5-0.2
						l0.5,0.2l-0.1-0.6l0.4-0.4l-0.5-0.1L59.4,73.4L59.4,73.4z M57.1,72.5l-0.4,0.7l-0.8,0.2l0.6,0.6l-0.1,0.8l0.8-0.4l0.8,0.4
						l-0.1-0.8l0.6-0.6l-0.8-0.2L57.1,72.5L57.1,72.5z M57.1,72.9l0.3,0.5l0.5,0.1l-0.4,0.4l0.1,0.6l-0.5-0.2l-0.5,0.2l0.1-0.6
						l-0.4-0.4l0.5-0.1L57.1,72.9L57.1,72.9z M55.2,70.9l0.4,0.7l0.8,0.2l-0.6,0.6l0.1,0.8l-0.8-0.4l-0.8,0.4l0.1-0.8L54,71.8
						l0.8-0.2L55.2,70.9L55.2,70.9z M55.2,71.3l0.3,0.5l0.5,0.1l-0.4,0.4l0.1,0.6l-0.5-0.2l-0.5,0.2l0.1-0.6l-0.4-0.4l0.6-0.1
						L55.2,71.3L55.2,71.3z M56.8,69.2L56.4,70l-0.8,0.2l0.6,0.6l-0.1,0.8l0.8-0.4l0.8,0.4l-0.1-0.8l0.6-0.6L57.3,70L56.8,69.2
						L56.8,69.2z M56.8,69.6l-0.3,0.5L56,70.2l0.4,0.4l-0.1,0.6l0.5-0.2l0.5,0.2l-0.1-0.6l0.4-0.4l-0.5-0.1L56.8,69.6L56.8,69.6z
						 M59.3,68.6l0.4,0.7l0.8,0.2L60,70.2l0.1,0.8l-0.8-0.4L58.6,71l0.1-0.8l-0.6-0.6l0.8-0.2L59.3,68.6L59.3,68.6z M59.3,69
						l-0.3,0.5l-0.5,0.1l0.4,0.4l-0.1,0.6l0.5-0.2l0.5,0.2L59.8,70l0.4-0.4l-0.5-0.1L59.3,69L59.3,69z M61.9,68.5l0.4,0.7l0.8,0.2
						L62.6,70l0.1,0.8l-0.8-0.4l-0.8,0.4l0.1-0.8l-0.6-0.6l0.8-0.2L61.9,68.5L61.9,68.5z M61.9,68.9l-0.3,0.5l-0.5,0.1l0.4,0.4
						l-0.1,0.6l0.5-0.2l0.5,0.2l-0.1-0.6l0.4-0.4l-0.5-0.1L61.9,68.9L61.9,68.9z M64.4,68.6l0.4,0.7l0.8,0.2l-0.6,0.6l0.1,0.8
						l-0.8-0.4L63.7,71l0.1-0.8l-0.6-0.6l0.8-0.2L64.4,68.6L64.4,68.6z M64.4,69l-0.3,0.5l-0.5,0.1L64,70l-0.1,0.6l0.5-0.2l0.5,0.2
						L64.9,70l0.4-0.4l-0.5-0.1L64.4,69L64.4,69z M66.8,69.3L66.4,70l-0.8,0.2l0.6,0.6L66,71.7l0.8-0.4l0.8,0.4l-0.1-0.8l0.6-0.6
						L67.2,70L66.8,69.3L66.8,69.3z M66.8,69.7l0.3,0.5l0.5,0.1l-0.4,0.4l0.1,0.6L66.8,71l-0.5,0.2l0.1-0.6l-0.4-0.4l0.5-0.1
						L66.8,69.7L66.8,69.7z M68.5,71L68,71.8l-0.8,0.2l0.6,0.6l-0.1,0.8l0.8-0.4l0.8,0.4l-0.1-0.8l0.6-0.6l-0.8-0.2L68.5,71L68.5,71
						z M68.5,71.4l-0.3,0.5L67.6,72l0.4,0.4L67.9,73l0.5-0.2L69,73l-0.1-0.6l0.4-0.4l-0.5-0.1L68.5,71.4z"/>
					<path class="st10" d="M62.1,94c0.3,0,0.7-2.9-0.3-4.5C62.4,90.8,62.4,93.8,62.1,94L62.1,94z M59.4,73.4l0.3,0.5l0.5,0.1
						l-0.4,0.4l0.1,0.6l-0.5-0.2L58.9,75l0.1-0.6L58.6,74l0.5-0.1L59.4,73.4L59.4,73.4z M61.9,73.5l0.3,0.5l0.5,0.1l-0.4,0.4
						l0.1,0.6l-0.5-0.2l-0.5,0.2l0.1-0.6l-0.4-0.4l0.5-0.1L61.9,73.5L61.9,73.5z M64.4,73.5l0.3,0.5l0.6,0.1l-0.4,0.4l0.1,0.6
						l-0.5-0.2l-0.5,0.2l0.1-0.6l-0.4-0.4l0.5-0.1L64.4,73.5L64.4,73.5z M66.8,73l0.3,0.5l0.5,0.1L67.2,74l0.1,0.6l-0.5-0.2
						l-0.5,0.2l0.1-0.6l-0.4-0.4l0.6-0.1L66.8,73L66.8,73z M68.5,71.4l0.3,0.5l0.5,0.1l-0.4,0.4L69,73l-0.5-0.2L67.9,73l0.1-0.6
						L67.6,72l0.5-0.1L68.5,71.4L68.5,71.4z M66.8,69.7l0.3,0.5l0.5,0.1l-0.4,0.4l0.1,0.6L66.8,71l-0.5,0.2l0.1-0.6l-0.4-0.4
						l0.5-0.1L66.8,69.7L66.8,69.7z M64.4,69l0.3,0.5l0.5,0.1L64.9,70l0.1,0.6l-0.5-0.2l-0.5,0.2L64,70l-0.4-0.4l0.5-0.1L64.4,69
						L64.4,69z M61.9,68.9l0.3,0.5l0.5,0.1l-0.4,0.4l0.1,0.6l-0.5-0.2l-0.5,0.2l0.1-0.6l-0.4-0.4l0.5-0.1L61.9,68.9L61.9,68.9z
						 M59.3,69l0.3,0.5l0.5,0.1L59.8,70l0.1,0.6l-0.5-0.2l-0.5,0.2l0.1-0.6l-0.4-0.4l0.5-0.1L59.3,69L59.3,69z M56.8,69.6l0.3,0.5
						l0.5,0.1l-0.4,0.4l0.1,0.6L56.8,71l-0.5,0.2l0.1-0.6L56,70.2l0.5-0.1L56.8,69.6L56.8,69.6z M55.2,71.3l0.3,0.5l0.5,0.1
						l-0.4,0.4l0.1,0.6l-0.5-0.2l-0.5,0.2l0.1-0.6l-0.4-0.4l0.6-0.1L55.2,71.3L55.2,71.3z M57.1,72.9l0.3,0.5l0.5,0.1l-0.4,0.4
						l0.1,0.6l-0.5-0.2l-0.5,0.2l0.1-0.6l-0.4-0.4l0.5-0.1L57.1,72.9L57.1,72.9z M62.6,87c0.3-0.5-2.7,4.6-1.3,7
						C59.9,92.7,61.6,87.9,62.6,87L62.6,87z M61.4,88.4c-0.1-0.5-0.3-1-0.7-1.4c-0.2-0.3,0.2,0.5,0.4,0.8
						C61.2,87.9,61.5,88.6,61.4,88.4L61.4,88.4z M49.5,88.1c0.5,0.7,2.2,4.7,3.8,4.7C51.2,93,50.1,89.7,49.5,88.1L49.5,88.1z
						 M52.9,83.9c-0.2,0-0.2-0.2-0.2-0.3c0.1-0.1,0.4-0.3,0.4-0.2C53.1,83.4,52.9,83.7,52.9,83.9L52.9,83.9z M50.1,85.7
						c-0.2-0.1-0.1-0.4,0-0.6c0.2-0.2,0.6-0.4,0.6-0.2C50.6,84.9,50,85.2,50.1,85.7L50.1,85.7z M51.1,86c0-0.6-0.5,1-0.6,1.6
						c-0.1,0.6-0.2,2.2,0,1.7C50.4,88.2,50.6,87.2,51.1,86L51.1,86z M52.7,86.1c0.2-0.8-0.9,1.3-1.3,2.1c-0.2,0.4-0.5,2.2-0.2,1.8
						C51.1,88.7,51.9,87.4,52.7,86.1L52.7,86.1z M53.4,88.3c0.2-0.3-0.6,0.3-0.9,0.6c-0.4,0.5-1.3,1.8-0.9,1.4
						C52.2,89.5,52.8,88.8,53.4,88.3L53.4,88.3z M53.5,87c-0.2-0.1-0.1-0.4,0-0.6c0.2-0.2,0.6-0.4,0.6-0.2
						C53.9,86.2,53.4,86.6,53.5,87L53.5,87z M54.9,89.2c0.3-0.2-0.5-0.5-0.9-0.5c-0.4,0-1.3,0.3-1,0.4
						C53.6,88.7,54.4,88.7,54.9,89.2L54.9,89.2z M52.4,90.7c0.3,0,0.3-0.5,1-0.2c0.3,0.1,0.3,0.7,0.5,0.5c0.4-0.2-0.1-0.8-0.5-0.9
						C53.1,90,52.5,90.2,52.4,90.7L52.4,90.7z M53.6,92.9c-0.1-0.1,0-0.3,0.1-0.3c0.1-0.1,0.4,0,0.4,0.2
						C54.1,92.8,53.7,92.8,53.6,92.9L53.6,92.9z M69.5,92.9c0-0.1-0.1-0.2-0.3-0.2c-0.1,0-0.3,0.3-0.2,0.4
						C69,93,69.3,92.8,69.5,92.9L69.5,92.9z M70.9,90.8c0-0.4-0.7-0.7-1.1-0.6c-0.4,0.1-0.9,0.7-0.5,0.9c0.3,0.2,0.3-0.5,0.5-0.5
						C70.6,90.4,70.6,90.8,70.9,90.8L70.9,90.8z M73.9,88.3c-0.7,1.6-1.8,4.9-3.8,4.7C71.7,93,73.3,89,73.9,88.3L73.9,88.3z
						 M70,88.5c-0.2-0.3,0.6,0.3,0.9,0.6c0.4,0.5,1.3,1.8,0.9,1.4C71.2,89.6,70.7,89,70,88.5L70,88.5z M68.5,89.3
						c0.6-0.5,1.3-0.5,1.9,0c0.3-0.2-0.6-0.5-1-0.4C69,88.8,68.1,89.1,68.5,89.3L68.5,89.3z M70,87.1c0.2-0.1,0.1-0.4,0-0.6
						c-0.1-0.2-0.6-0.4-0.6-0.2C69.6,86.3,70.1,86.7,70,87.1L70,87.1z M70.7,86.3c-0.2-0.8,0.9,1.3,1.3,2.1c0.2,0.4,0.5,2.2,0.2,1.8
						C72.3,88.9,71.5,87.6,70.7,86.3L70.7,86.3z M72.2,86.1c0.5,1.3,0.7,2.3,0.6,3.2c0.2,0.6,0.1-1.1,0-1.7
						C72.7,87.1,72.2,85.6,72.2,86.1L72.2,86.1z M73.4,85.9c0.1-0.4-0.5-0.8-0.6-0.7c0-0.2,0.5,0,0.6,0.2
						C73.6,85.5,73.7,85.8,73.4,85.9L73.4,85.9z M70.5,84c0.2,0,0.3-0.1,0.2-0.3c0-0.2-0.3-0.4-0.4-0.2C70.4,83.5,70.6,83.8,70.5,84
						L70.5,84z M56.7,86.5c-0.3,1.6,0.3,4.1-1,6c1.5-1.3,1.2-4,1.3-5.9C57,86.4,56.7,86.2,56.7,86.5L56.7,86.5z M59.5,86.4
						c-0.4,1.5-0.4,4.2-2,5.7c1.6-0.9,2-3.8,2.3-5.5C59.9,86.4,59.6,86.2,59.5,86.4L59.5,86.4z M66.7,86.5c0.1,1.5-0.3,4.2,0.9,6
						c-1.4-1.2-1.2-4.1-1.3-5.8C66.3,86.4,66.7,86.2,66.7,86.5L66.7,86.5z M63.9,86.4c0.3,1.5,0.2,4.1,1.8,5.8
						c-1.6-1-1.9-3.8-2.2-5.5C63.5,86.4,63.9,86.2,63.9,86.4L63.9,86.4z M66.2,84.6c-0.1,0-0.6,0.2-0.6,0.3c-0.1-0.1,0-0.3,0.2-0.5
						C66.1,84.4,66.2,84.5,66.2,84.6L66.2,84.6z M63.5,84.4c-0.1,0-0.6,0.2-0.6,0.3c-0.1-0.1,0-0.3,0.2-0.4
						C63.4,84.1,63.5,84.2,63.5,84.4L63.5,84.4z M60.3,84.3c-0.1,0-0.6,0.2-0.6,0.3c-0.1-0.1,0-0.3,0.2-0.5
						C60.2,84.1,60.3,84.2,60.3,84.3L60.3,84.3z M57.6,84.5c-0.1,0-0.6,0.2-0.6,0.3c-0.1-0.1,0-0.3,0.2-0.5
						C57.5,84.3,57.6,84.4,57.6,84.5L57.6,84.5z M54.4,77.8c0.1-0.3,0.1-0.6,0-0.8c0-0.2-0.4,0.2-0.4,0.4C54,77.6,54.4,78,54.4,77.8
						L54.4,77.8z M56.8,83.1c0-1.5,0.4-4-0.3-5.4c0.8,1,0.8,3.6,0.5,5.5C57.1,83.4,56.9,83.3,56.8,83.1L56.8,83.1z M56,76.6
						c0.8-0.1,3.2,2.6,3.3,3.3C59.4,79.1,57.1,76.3,56,76.6L56,76.6z M60,82.9c0,0.2-0.4,0.1-0.4-0.1c-0.2-1.9,0.3-5.6,1.6-6.3
						C59.8,77.7,59.9,81.5,60,82.9L60,82.9z M69.1,77.9c-0.1-0.3-0.1-0.6,0-0.8c0-0.2,0.4,0.2,0.4,0.4
						C69.5,77.6,69.1,78.1,69.1,77.9L69.1,77.9z M67.4,76.6c-0.8-0.1-3.2,2.6-3.3,3.3C64.1,79.1,66.4,76.3,67.4,76.6L67.4,76.6z
						 M66.5,83.3c0.1-1-0.4-3.4,0.3-5.2C66,79,66,81.6,66.2,83.2C66.2,83.3,66.4,83.4,66.5,83.3L66.5,83.3z M62.9,82.9
						c0.1-1.1,0.4-4.2-0.5-6.3c0.9,0.9,1.1,4.5,0.9,6.3C63.4,83.1,63,83,62.9,82.9z"/>
				</g>
				<path class="st4" d="M32.6,73.9c-0.1-0.2-0.2-0.6-0.1-0.8c0.2-0.5,0.6-0.2,0.7,0c0.1,0.3,0,0.6-0.3,0.8c0.7,1.2,0.8,2.5,0.3,4
					c0,0.1,0.1,0.2,0.2,0.1c0.7-0.3,1.4-0.3,2.2,0c0.4,0.2,0.9,0.2,1.4,0.1c0.3-0.2,0.6-0.2,0.9,0.2c0.1,0.1,0.1,0.3-0.1,0.4
					c-0.4,0.1-0.8,0.1-1.3,0c-1.4,0.7-2.6,1.1-3.4,0.2c0.3,3.5,1,5.7,2.4,5.9c-0.4,0.4-1,0.5-1.7,0.3c-0.1,0.6,0.3,1,1,1.4
					c-0.4,0.4-0.9,0.4-1.4,0.2c-0.4,1.5-1.8,1.3-1.7,0.1c-0.5,0.2-1,0.1-1.4-0.3c0.5-0.5,0.8-1.1,1-1.7c-0.5,0.1-1,0.1-1.5-0.1
					c1.5-1.2,2.3-3,2.4-5.5c-0.1-0.1-0.3,0-0.5,0c-0.9,0.6-1.9,0.6-3-0.2c-0.2,0.1-0.5,0.1-0.8,0c-0.5-0.2-0.4-0.6,0.1-0.7
					c0.3,0,0.5,0,0.7,0c0.5,0,0.9,0,1.3-0.2c0.8-0.4,1.5-0.5,2.3-0.2C32.1,76.5,31.9,75.2,32.6,73.9L32.6,73.9z M93.3,73.9
					c-0.1-0.2-0.2-0.6-0.1-0.8c0.2-0.5,0.6-0.2,0.7,0c0.1,0.3,0,0.6-0.3,0.8c0.7,1.2,0.8,2.5,0.3,4c0,0.1,0.1,0.2,0.2,0.1
					c0.7-0.3,1.4-0.3,2.2,0c0.4,0.2,0.9,0.2,1.4,0.1c0.3-0.2,0.6-0.2,0.9,0.2c0.1,0.1,0.1,0.3-0.1,0.4c-0.4,0.1-0.8,0.1-1.3,0
					c-1.4,0.7-2.6,1.1-3.4,0.2c0.3,3.5,1,5.7,2.4,5.9c-0.4,0.4-1,0.5-1.7,0.3c-0.1,0.6,0.3,1,1,1.4c-0.4,0.4-0.9,0.4-1.4,0.2
					c-0.4,1.5-1.8,1.3-1.7,0.1c-0.5,0.2-1,0.1-1.4-0.3c0.5-0.5,0.8-1.1,1-1.7c-0.5,0.1-1,0.1-1.5-0.1c1.5-1.2,2.3-3,2.4-5.5
					c-0.1-0.1-0.2,0-0.5,0c-0.9,0.6-1.9,0.6-3-0.2c-0.2,0.1-0.5,0.1-0.8,0c-0.5-0.2-0.4-0.6,0.1-0.7c0.3,0,0.5,0,0.7,0
					c0.5,0,0.9,0,1.3-0.2c0.8-0.4,1.5-0.5,2.3-0.2C92.7,76.5,92.6,75.2,93.3,73.9L93.3,73.9z M42.7,62.9c-0.7,1.3-0.6,2.5-0.4,3.8
					c-0.8-0.2-1.5-0.2-2.3,0.2c-0.4,0.1-0.8,0.2-1.3,0.2c-0.2-0.1-0.5-0.1-0.7,0c-0.5,0.2-0.5,0.5-0.1,0.7c0.3,0.1,0.5,0.1,0.8,0
					c1.2,0.7,2.1,0.7,3,0.2c0.3,0,0.4-0.1,0.5,0c-0.1,2.3-0.9,4.1-2.4,5.2c0.5,0.2,1,0.2,1.5,0.1c-0.2,0.6-0.5,1.2-1,1.6
					c0.4,0.4,0.9,0.4,1.4,0.2c-0.1,1.1,1.3,1.4,1.7-0.1c0.6,0.2,1,0.2,1.4-0.2c-0.8-0.4-1.1-0.8-1-1.3c0.7,0.2,1.2,0.1,1.7-0.3
					c-1.4-0.2-2.1-2.3-2.4-5.6c0.8,0.8,2,0.5,3.4-0.2c0.4,0.1,0.8,0.1,1.3,0c0.1-0.1,0.2-0.3,0.1-0.4c-0.3-0.3-0.5-0.4-0.9-0.2
					c-0.5,0.1-0.9,0.1-1.4-0.1c-0.8-0.2-1.5-0.3-2.2,0c-0.2,0.1-0.2,0.1-0.2,0c0.5-1.4,0.4-2.7-0.3-3.8c0.3-0.1,0.4-0.4,0.3-0.7
					c-0.1-0.3-0.5-0.5-0.7,0C42.6,62.4,42.6,62.7,42.7,62.9L42.7,62.9z M83.1,62.9c-0.7,1.3-0.6,2.5-0.4,3.8
					c-0.8-0.2-1.5-0.2-2.3,0.2c-0.4,0.1-0.8,0.2-1.3,0.2c-0.2-0.1-0.5-0.1-0.7,0c-0.5,0.2-0.5,0.5-0.1,0.7c0.3,0.1,0.5,0.1,0.8,0
					c1.2,0.7,2.1,0.7,3,0.2c0.3,0,0.4-0.1,0.5,0c-0.1,2.3-0.9,4.1-2.4,5.2c0.5,0.2,1,0.2,1.5,0.1c-0.2,0.6-0.5,1.2-1,1.6
					c0.4,0.4,0.9,0.4,1.4,0.2c-0.1,1.1,1.3,1.4,1.7-0.1c0.6,0.2,1,0.2,1.4-0.2c-0.8-0.4-1.1-0.8-1-1.3c0.7,0.2,1.2,0.1,1.7-0.3
					c-1.4-0.2-2.1-2.3-2.4-5.6c0.8,0.8,2,0.5,3.4-0.2c0.4,0.1,0.8,0.1,1.3,0c0.1-0.1,0.2-0.3,0.1-0.4c-0.3-0.3-0.5-0.4-0.9-0.2
					c-0.5,0.1-0.9,0.1-1.4-0.1c-0.8-0.2-1.5-0.3-2.2,0c-0.2,0.1-0.2,0.1-0.2,0c0.5-1.4,0.4-2.7-0.3-3.8c0.3-0.1,0.4-0.4,0.3-0.7
					c-0.1-0.3-0.5-0.5-0.7,0C83,62.4,83,62.7,83.1,62.9L83.1,62.9z M33.6,58.3c0.4,2,1.1,3.2,2.2,3.4c-0.4,0.3-1,0.4-1.7,0.2
					c-0.1,0.5,0.3,0.9,1,1.2c-0.4,0.3-0.9,0.4-1.4,0.2c-0.4,1.3-1.8,1.1-1.7,0.1c-0.5,0.1-1,0.1-1.4-0.2c0.5-0.4,0.8-0.9,1-1.5
					c-0.5,0.1-1,0-1.5-0.1c1.1-0.8,1.9-1.9,2.2-3.3L33.6,58.3L33.6,58.3z M94.2,58.3c0.4,2,1.1,3.2,2.2,3.4c-0.4,0.3-1,0.4-1.7,0.2
					c-0.1,0.5,0.3,0.9,1,1.2c-0.4,0.3-0.9,0.4-1.4,0.2c-0.4,1.3-1.8,1.1-1.7,0.1c-0.5,0.1-1,0.1-1.3-0.2c0.5-0.4,0.8-0.9,1-1.5
					c-0.5,0.1-1,0-1.5-0.1c1.1-0.8,1.9-1.9,2.2-3.3L94.2,58.3L94.2,58.3z M42.4,85.9c-0.7,1.3-0.6,2.6-0.4,4
					c-0.8-0.2-1.5-0.2-2.3,0.2c-0.4,0.1-0.8,0.2-1.3,0.2c-0.2-0.1-0.5-0.1-0.7,0c-0.5,0.2-0.5,0.5-0.1,0.7c0.3,0.1,0.5,0.1,0.8,0
					c1.2,0.7,2.1,0.8,3,0.2c0.3,0,0.4-0.1,0.5,0c-0.1,2.5-0.9,4.3-2.4,5.5c0.5,0.2,1,0.2,1.5,0.1c-0.2,0.6-0.5,1.2-1,1.7
					c0.4,0.4,0.9,0.4,1.4,0.3c-0.1,1.2,1.3,1.4,1.7-0.1c0.6,0.2,1,0.2,1.4-0.2c-0.8-0.4-1.2-0.8-1-1.4c0.7,0.2,1.2,0.1,1.7-0.3
					c-1.4-0.2-2.1-2.4-2.4-5.9c0.8,0.9,2,0.5,3.4-0.2c0.4,0.2,0.8,0.1,1.3,0c0.1-0.1,0.2-0.3,0.1-0.4c-0.3-0.3-0.5-0.4-0.9-0.2
					c-0.5,0.1-0.9,0.1-1.4-0.1c-0.8-0.2-1.5-0.3-2.2,0C43.1,90.1,43,90.1,43,90c0.5-1.5,0.4-2.8-0.3-4c0.3-0.2,0.4-0.4,0.3-0.8
					c-0.1-0.3-0.5-0.5-0.7,0C42.2,85.4,42.3,85.7,42.4,85.9L42.4,85.9z M82.8,85.9c-0.7,1.3-0.6,2.6-0.4,4c-0.8-0.2-1.5-0.2-2.3,0.2
					c-0.4,0.1-0.8,0.2-1.3,0.2c-0.2-0.1-0.5-0.1-0.7,0c-0.5,0.2-0.5,0.5-0.1,0.7c0.3,0.1,0.5,0.1,0.8,0c1.2,0.7,2.1,0.8,3,0.2
					c0.3,0,0.4-0.1,0.5,0c-0.1,2.5-0.9,4.3-2.4,5.5c0.5,0.2,1,0.2,1.5,0.1c-0.2,0.6-0.5,1.2-1,1.7c0.4,0.4,0.9,0.4,1.4,0.3
					c-0.1,1.2,1.3,1.4,1.7-0.1c0.6,0.2,1,0.2,1.4-0.2c-0.8-0.4-1.1-0.8-1-1.4c0.7,0.2,1.2,0.1,1.7-0.3c-1.4-0.2-2.1-2.4-2.4-5.9
					c0.8,0.9,2,0.5,3.4-0.2c0.4,0.2,0.8,0.1,1.3,0c0.1-0.1,0.2-0.3,0.1-0.4c-0.3-0.3-0.5-0.4-0.9-0.2c-0.5,0.1-0.9,0.1-1.4-0.1
					c-0.8-0.2-1.5-0.3-2.2,0c-0.2,0.1-0.2,0.1-0.2-0.1c0.5-1.5,0.4-2.8-0.3-4c0.3-0.2,0.4-0.4,0.3-0.8c-0.1-0.3-0.5-0.5-0.7,0
					C82.6,85.4,82.7,85.7,82.8,85.9L82.8,85.9z M22.7,84.9v14.8c0.3-0.1,0.5-0.4,0.7-1c0.6,0.2,1,0.2,1.4-0.2
					c-0.8-0.4-1.1-0.8-1-1.4c0.7,0.2,1.2,0.1,1.7-0.3c-1.4-0.2-2.1-2.4-2.4-5.9c0.8,0.9,2,0.5,3.4-0.2c0.4,0.2,0.8,0.1,1.3,0
					c0.1-0.1,0.2-0.3,0.1-0.4c-0.3-0.3-0.5-0.4-0.9-0.2c-0.5,0.1-0.9,0.1-1.4-0.1c-0.8-0.2-1.5-0.3-2.2,0C23.1,90.1,23,90.1,23,90
					c0.5-1.5,0.4-2.8-0.3-4c0.3-0.2,0.4-0.4,0.3-0.8C23,85,22.8,84.9,22.7,84.9L22.7,84.9z M103.6,85.9c-0.7,1.3-0.6,2.6-0.4,4
					c-0.8-0.2-1.5-0.2-2.3,0.2c-0.4,0.1-0.8,0.2-1.3,0.2c-0.2-0.1-0.5-0.1-0.7,0c-0.5,0.2-0.5,0.5-0.1,0.7c0.3,0.1,0.5,0.1,0.8,0
					c1.2,0.7,2.1,0.8,3,0.2c0.3,0,0.4-0.1,0.5,0c-0.1,2.5-0.9,4.3-2.4,5.5c0.5,0.2,1,0.2,1.5,0.1c-0.2,0.6-0.5,1.2-1,1.7
					c0.4,0.4,0.9,0.4,1.4,0.3c-0.1,0.9,0.7,1.2,1.2,0.8l0-13.5c0-0.1-0.1-0.1-0.1-0.2c0,0,0.1,0,0.1-0.1l0-0.9
					c-0.2-0.1-0.4-0.1-0.5,0.2C103.4,85.4,103.5,85.7,103.6,85.9L103.6,85.9z M22.7,61.8v14.8c0.3-0.1,0.5-0.4,0.7-1
					c0.6,0.2,1,0.2,1.4-0.2c-0.8-0.4-1.1-0.8-1-1.4c0.7,0.2,1.2,0.1,1.7-0.3c-1.4-0.2-2.1-2.4-2.4-5.9c0.8,0.9,2,0.5,3.4-0.2
					c0.4,0.1,0.8,0.1,1.3,0c0.1-0.1,0.2-0.3,0.1-0.4c-0.3-0.3-0.5-0.4-0.9-0.2c-0.5,0.1-0.9,0.1-1.4-0.1c-0.8-0.2-1.5-0.3-2.2,0
					c-0.2,0.1-0.2,0.1-0.2-0.1c0.5-1.5,0.4-2.8-0.3-4c0.3-0.2,0.4-0.4,0.3-0.8C23,62,22.8,61.9,22.7,61.8L22.7,61.8z M103.6,62.9
					c-0.7,1.3-0.6,2.6-0.4,4c-0.8-0.2-1.5-0.2-2.3,0.2c-0.4,0.1-0.8,0.2-1.3,0.2c-0.2-0.1-0.5-0.1-0.7,0c-0.5,0.2-0.5,0.5-0.1,0.7
					c0.3,0.1,0.5,0.1,0.8,0c1.2,0.7,2.1,0.8,3,0.2c0.3,0,0.4-0.1,0.5,0c-0.1,2.5-0.9,4.3-2.4,5.5c0.5,0.2,1,0.2,1.5,0.1
					c-0.2,0.6-0.5,1.2-1,1.7c0.4,0.4,0.9,0.4,1.4,0.3c-0.1,0.9,0.7,1.3,1.3,0.8l0-13.4c0-0.1-0.1-0.2-0.1-0.3c0.1,0,0.1-0.1,0.1-0.1
					l0-0.9c-0.2-0.1-0.4-0.1-0.5,0.2C103.4,62.3,103.5,62.7,103.6,62.9L103.6,62.9z M32.5,97.5c-0.1-0.2-0.1-0.5-0.1-0.8
					c0.2-0.5,0.5-0.2,0.6,0c0.1,0.3,0,0.6-0.3,0.7c0.6,1.2,0.7,2.5,0.3,4c0,0.1,0.1,0.2,0.2,0.1c0.6-0.3,1.3-0.3,2,0
					c0.4,0.2,0.8,0.2,1.2,0.1c0.3-0.2,0.5-0.1,0.8,0.2c0.1,0.1,0.1,0.3-0.1,0.4c-0.4,0.1-0.8,0.1-1.1,0c-1.3,0.7-2.4,1-3.1,0.2
					c0.2,3.5,0.9,5.6,2.2,5.8c-0.4,0.4-0.9,0.5-1.5,0.3c-0.1,0.5,0.2,1,0.9,1.4c-0.3,0.4-0.8,0.4-1.3,0.2c-0.4,1.5-1.7,1.2-1.6,0.1
					c-0.4,0.2-0.9,0.1-1.2-0.3c0.4-0.5,0.7-1.1,0.9-1.7c-0.4,0.1-0.9,0.1-1.4-0.1c1.4-1.2,2.1-3,2.2-5.4c-0.1-0.1-0.2,0-0.5,0
					c-0.8,0.6-1.7,0.5-2.7-0.2c-0.2,0.1-0.5,0.1-0.7,0c-0.4-0.2-0.4-0.6,0-0.7c0.2,0,0.5,0,0.7,0c0.4,0,0.8,0,1.1-0.2
					c0.7-0.4,1.4-0.4,2.1-0.2C31.9,100.1,31.8,98.8,32.5,97.5L32.5,97.5z M93.1,97.5C93.1,97.3,93,97,93,96.8c0.2-0.5,0.5-0.2,0.7,0
					c0.1,0.3,0,0.6-0.3,0.7c0.6,1.2,0.7,2.5,0.3,4c0,0.1,0.1,0.2,0.2,0.1c0.6-0.3,1.3-0.3,2,0c0.4,0.2,0.8,0.2,1.2,0.1
					c0.3-0.2,0.5-0.1,0.8,0.2c0.1,0.1,0.1,0.3-0.1,0.4c-0.4,0.1-0.8,0.1-1.1,0c-1.3,0.7-2.4,1-3.1,0.2c0.2,3.5,0.9,5.6,2.2,5.8
					c-0.4,0.4-0.9,0.5-1.5,0.3c-0.1,0.5,0.3,1,0.9,1.4c-0.3,0.4-0.8,0.4-1.3,0.2c-0.4,1.5-1.7,1.2-1.6,0.1c-0.4,0.2-0.9,0.1-1.2-0.3
					c0.4-0.5,0.7-1.1,0.9-1.7c-0.4,0.1-0.9,0.1-1.4-0.1c1.4-1.2,2.1-3,2.2-5.4c-0.1-0.1-0.2,0-0.5,0c-0.8,0.6-1.7,0.5-2.7-0.2
					c-0.2,0.1-0.5,0.1-0.7,0c-0.4-0.2-0.4-0.6,0-0.7c0.2,0,0.5,0,0.7,0c0.4,0,0.8,0,1.1-0.2c0.7-0.4,1.4-0.4,2.1-0.2
					C92.6,100.1,92.5,98.8,93.1,97.5L93.1,97.5z M42.5,110c-0.1-0.2-0.2-0.5-0.1-0.7c0.2-0.4,0.6-0.2,0.7,0c0.1,0.3,0,0.6-0.3,0.7
					c0.7,1.1,0.7,2.4,0.3,3.8c0,0.1,0.1,0.1,0.2,0c0.6-0.3,1.4-0.3,2.1,0c0.4,0.2,0.9,0.2,1.3,0.1c0.3-0.2,0.6-0.1,0.8,0.2
					c0.1,0.1,0.1,0.3-0.1,0.4c-0.4,0.1-0.8,0.1-1.2,0c-1.4,0.7-2.5,1-3.3,0.2c0.2,3.3,1,5.3,2.3,5.5c-0.4,0.4-0.9,0.5-1.6,0.3
					c-0.1,0.5,0.3,1,1,1.3c-0.4,0.4-0.8,0.4-1.4,0.2c-0.4,1.4-1.8,1.2-1.7,0.1c-0.5,0.1-1,0.1-1.3-0.2c0.4-0.5,0.7-1,0.9-1.6
					c-0.5,0.1-1,0.1-1.5-0.1c1.4-1.1,2.2-2.8,2.3-5.1c-0.1-0.1-0.2,0-0.5,0c-0.9,0.6-1.8,0.5-2.9-0.2c-0.2,0.1-0.5,0.1-0.8,0
					c-0.5-0.2-0.4-0.5,0-0.7c0.3,0,0.5,0,0.7,0c0.4,0,0.8,0,1.2-0.2c0.7-0.4,1.5-0.4,2.2-0.2C42,112.5,41.8,111.3,42.5,110L42.5,110
					z M82.9,110c-0.1-0.2-0.2-0.5-0.1-0.7c0.2-0.4,0.6-0.2,0.7,0c0.1,0.3,0,0.6-0.3,0.7c0.7,1.1,0.7,2.4,0.3,3.8
					c0,0.1,0.1,0.1,0.2,0c0.6-0.3,1.4-0.3,2.1,0c0.4,0.2,0.9,0.2,1.3,0.1c0.3-0.2,0.6-0.1,0.8,0.2c0.1,0.1,0.1,0.3-0.1,0.4
					c-0.4,0.1-0.8,0.1-1.2,0c-1.4,0.7-2.5,1-3.3,0.2c0.2,3.3,1,5.3,2.3,5.5c-0.4,0.4-0.9,0.5-1.6,0.3c-0.1,0.5,0.3,1,1,1.3
					c-0.4,0.4-0.8,0.4-1.4,0.2c-0.4,1.4-1.8,1.2-1.7,0.1c-0.5,0.1-1,0.1-1.3-0.2c0.5-0.5,0.7-1,0.9-1.6c-0.5,0.1-1,0.1-1.5-0.1
					c1.4-1.1,2.2-2.8,2.3-5.1c-0.1-0.1-0.2,0-0.5,0c-0.9,0.6-1.8,0.5-2.9-0.2c-0.2,0.1-0.5,0.1-0.8,0c-0.5-0.2-0.4-0.5,0-0.7
					c0.3,0,0.5,0,0.7,0c0.4,0,0.8,0,1.2-0.2c0.7-0.4,1.5-0.4,2.2-0.2C82.4,112.5,82.2,111.3,82.9,110L82.9,110z M32.4,119.5
					c-0.1-0.2-0.2-0.5-0.1-0.7c0.2-0.4,0.6-0.2,0.7,0c0.1,0.3,0,0.6-0.3,0.7c0.7,1.1,0.7,2.4,0.3,3.8c0,0.1,0.1,0.1,0.2,0
					c0.6-0.3,1.4-0.3,2.1,0c0.4,0.2,0.9,0.2,1.3,0.1c0.3-0.2,0.6-0.1,0.8,0.1h-7.9c0.1,0,0.2-0.1,0.3-0.1c0.7-0.4,1.5-0.4,2.2-0.2
					C31.9,121.9,31.7,120.7,32.4,119.5L32.4,119.5z M54.1,150.5c0.3,3.1,1,5.1,2.3,5.2c-0.4,0.4-0.9,0.5-1.6,0.3
					c-0.1,0.3,0.1,0.6,0.3,0.9c-1-0.2-2-0.4-2.9-0.7c0.1-0.2,0.1-0.3,0.2-0.5c-0.5,0.1-1,0.1-1.5-0.1c1.4-1.1,2.2-2.8,2.3-5.1H54.1
					L54.1,150.5z M73.3,150.5c0.2,2.9,0.9,4.8,2,5.2c-0.4,0.1-0.7,0.3-1.1,0.4c-0.1,0-0.2,0-0.3-0.1c0,0.1,0,0.1,0,0.2
					c-1,0.3-2,0.6-3.1,0.8c0.3-0.4,0.5-0.8,0.7-1.3c-0.5,0.1-1,0.1-1.5-0.1c1.4-1.1,2.2-2.8,2.3-5.1L73.3,150.5L73.3,150.5z
					 M93.1,119.5c-0.1-0.2-0.2-0.5-0.1-0.7c0.2-0.4,0.6-0.2,0.7,0c0.1,0.3,0,0.6-0.3,0.7c0.7,1.1,0.7,2.4,0.3,3.8
					c0,0.1,0.1,0.1,0.2,0c0.6-0.3,1.4-0.3,2.1,0c0.4,0.2,0.9,0.2,1.3,0.1c0.3-0.2,0.6-0.1,0.8,0.1h-7.9c0.1,0,0.2-0.1,0.3-0.1
					c0.7-0.4,1.5-0.4,2.2-0.2C92.5,121.9,92.4,120.7,93.1,119.5L93.1,119.5z M22.7,108.4c0.2-0.1,0.4,0.1,0.5,0.3
					c0.1,0.3,0,0.6-0.3,0.7c0.7,1.1,0.7,2.4,0.3,3.8c0,0.1,0.1,0.1,0.2,0c0.6-0.3,1.4-0.3,2.1,0c0.4,0.2,0.9,0.2,1.3,0.1
					c0.3-0.2,0.6-0.1,0.8,0.2c0.1,0.1,0.1,0.3-0.1,0.4c-0.4,0.1-0.8,0.1-1.2,0c-1.4,0.7-2.5,1-3.3,0.2c0.2,3.3,1,5.4,2.3,5.5
					c-0.4,0.4-0.9,0.5-1.6,0.3c-0.1,0.5,0.3,1,1,1.3c-0.4,0.4-0.8,0.4-1.4,0.2c-0.2,0.5-0.4,0.8-0.7,0.9L22.7,108.4L22.7,108.4z
					 M103.7,109.4c-0.1-0.2-0.2-0.5-0.1-0.7c0.1-0.2,0.2-0.3,0.4-0.3l0,13.8c-0.5,0.3-1.1-0.1-1-0.8c-0.5,0.1-1,0.1-1.3-0.2
					c0.4-0.5,0.7-1,0.9-1.6c-0.5,0.1-1,0.1-1.5-0.1c1.4-1.1,2.2-2.8,2.3-5.1c-0.1-0.1-0.2,0-0.5,0c-0.9,0.6-1.8,0.5-2.9-0.2
					c-0.2,0.1-0.5,0.1-0.8,0c-0.5-0.2-0.4-0.5,0-0.7c0.3,0,0.5,0,0.7,0c0.4,0,0.8,0,1.2-0.2c0.7-0.4,1.5-0.4,2.2-0.2
					C103.2,111.8,103,110.6,103.7,109.4z"/>
				<polygon class="st3" points="61.7,149.5 66.4,140.3 76.5,142.4 72.3,132.9 80.2,126.3 70.2,123.7 70,113.3 61.7,119.6 
					53.5,113.3 53.3,123.7 43.3,126.3 51.2,132.9 46.9,142.4 57,140.3 				"/>
			</g>
			<path class="st4" d="M40.3,48.5c0-0.1,0-0.8,0-1.5c0-0.9-0.3-1-0.1-2c0-0.2-0.2-0.2-0.3-0.1c-0.2,1.2,0.2,2.2,0.2,2.4l0,1.2
				L40.3,48.5z M39.7,48.5c0-0.1,0-0.8,0-1.6c0-0.5-0.3-1.5-0.1-2.2c0-0.2-0.2-0.2-0.3-0.1c-0.2,1.3,0.3,2.5,0.2,2.6l-0.1,1.2
				L39.7,48.5z M36.5,43l3.8,1.8c1.3-1.5,2.3-2.6,4.2-3c1,2.7-0.4,5.6-1.4,7.1l3.5,2.1c1.8-3,2.9-7.4,1-9.8c-1.5-1.5-3.4-2.5-6-3.1
				c-2.9,0.1-4.5,2.5-5.5,4.2C36.2,42.4,36.1,42.9,36.5,43z M39.1,46.9c0-0.5-0.3-1.7-0.1-2.4c0-0.2-0.2-0.2-0.3-0.1
				c-0.2,0.9,0.2,2.2,0.1,2.8c-0.2,1.3-0.4,0.8-0.4,1l0.2,0.2c0-0.1,0.5-0.2,0.3-0.9C39.1,47.2,39.2,47.2,39.1,46.9z M36.9,43.4
				c-0.3,0.9-0.3,2-0.2,2.6c-0.2,0.6-0.1,0.3-0.1,0.9l0.3,0.2c-0.1-0.4,0-0.9,0.1-1.3c0,0.1,0.1-0.2,0-0.7c-0.1-0.6-0.1-1.1,0.1-1.5
				C37.1,43.3,37,43.3,36.9,43.4z M38.2,47c0.2-0.2,0.2-0.2,0.2-0.5c0-0.5-0.1-1.5,0.1-2.3c0-0.2-0.2-0.2-0.3-0.1
				c-0.2,0.9-0.1,2-0.1,2.6c-0.3,0.5-0.3,0.6-0.2,1.2l0.4,0.3C38,47.9,38,47.4,38.2,47z M56.4,50.5c-1,6.4-4.1,10.5-7.9,13.2
				C44,62.8,42,60.4,43,57.4c-1-1.3-2-2.6-3-3.8c-1.1,1.8-1.9,3.6-2,4.7c-0.4,5.6,3.6,7.8,8,8.1c7.1,0.6,12.7-2.7,15.8-14.9
				L56.4,50.5z M37.8,43.9c0-0.2-0.2-0.2-0.3-0.1c-0.2,0.9-0.1,1.8-0.2,2.4c-0.3,0.5-0.2,0.6-0.2,1.2l0.4,0.3
				c-0.2-0.3-0.1-0.8,0-1.2c0.2-0.2,0.2-0.2,0.2-0.5C37.7,45.5,37.6,44.6,37.8,43.9z M36.2,43c-0.1,0.5-0.2,1.1-0.1,1.5
				c0.1,0.3,0.1,0.3,0.1,0.6c-0.3,0.2-0.3,0.8-0.2,1.6l0.3,0.2c-0.1-0.4-0.2-0.9,0-1.3c0-0.2,0-0.3,0.2-0.5c0.1-0.3,0-0.3-0.1-0.6
				c-0.1-0.4,0-1,0.1-1.4C36.5,42.9,36.3,43,36.2,43z"/>
			<path class="st5" d="M46,40.5c-1-0.6-3.1-1.6-4.3-1.9c-1.4-0.2-3.6,1.6-4.8,3.8l2.8,1.4C41.1,41.8,43.2,40.3,46,40.5z M40,44
				l0.2,0.3c1.7-2.3,4.3-3.7,6.8-2.9c-0.3-0.2-0.7-0.5-0.7-0.5C43.5,40.7,41.6,42.1,40,44z M45.2,41.7c0.8,2.2,0.4,5.2-1.4,7.6
				l2.2,1.3c2.3-3.8,2.1-7.8,1.2-8.9C46.8,41.7,45.7,41.6,45.2,41.7z M42.5,56.7c-0.6-0.8-1.3-1.7-2-2.5c-1,1.6-1.8,3.3-1.8,4.3
				c-0.1,3.2,1.2,6.4,6.4,7.3l2.9-1.7C42.7,63.1,41.3,59.5,42.5,56.7z M57.1,51.2l-0.4-0.1c-0.7,5.5-3.6,11.2-11.1,14.7l0.9,0.1
				C54,62.1,56.5,56.6,57.1,51.2z M57.5,51.4c-0.7,6.2-4.3,11.4-10.4,14.6c2.4-0.1,5.4-0.7,7.5-2.6c2.8-1.9,5-6.1,6.4-11.7
				C59.8,51.7,58.8,51.6,57.5,51.4z"/>
			<g>
				<path class="st2" d="M62.5,4c-0.3,0.6-1.1,0.6-1.4,0c-0.8-0.4-0.9-1.2-0.2-1.4c0.4-0.7,1-0.6,1.4,0.1l0.2,0l0-0.3
					c-0.9-0.3-0.9-1.2,0.1-1.4c-0.1-1.2,1.2-1.3,1.4,0c0.6,0.3,0.7,0.8,0.1,1.3l0,0.4l0.2,0c0.4-0.9,1.1-0.9,1.4-0.3
					c1.3,0.3,1.1,1.6,0,1.5c-0.5,0.6-0.9,0.6-1.3,0l-0.1,2.4C65.2,6.5,65.9,7.1,66,8c0.7,0.4,0.8,1.1,0,1.3c0,0.7-0.9,1-0.9,1.1
					C69,10.5,72.2,12,73,14c0.2-0.1,0.4-0.5,0.7-1.2l0.2,0.8C74,14,74,14,74.3,14.2c0.4,0.3,0.6,0.7,0.7,1.3c0.5,0.1,0.9,0.4,1.2,1
					c0.2,0.4,0.5,0.5,0.8,0.1c0.2-0.2,0.5-0.6,0.8-1.2c0,0.4-0.3,0.7,0.1,1.1c0.5,0.4,0.7,1.1,0.4,2c0.7,0.6,0.1,1.1,0.1,2.2
					c0.3,0.3,0.6,0.6,0.9,0.7l-0.1,1.2l0.2,0.1L79.1,26c0.1,0.3,0.3,0.6,0.5,0.8c0.7,0.6,0.3,2.2-0.2,2.5c-0.1,1.1-0.5,1.7-1.3,2.1
					l0,1.4l0.3,0.3l-0.1,1.3l0.3,0.6c0.2,0.3,0.1,0.5-0.2,0.5l-0.8,0.4c0.7,0.9,0.8,1.6,0,2.2c-0.3,0.1-0.4,0.6-0.3,1.5
					c1.5,0.9,1.3,2.7-0.4,3.6l-0.1,1.5c0.3,0.4,0.5,0.9,0.4,1.5c0.4,0.5,0.4,1-0.1,1.4c-0.1,0.6-0.4,1.6-1.6,2.1
					c-1.9,1-4.6,1.5-7.5,2.2c-5.5,1-11,0.5-16.7-2.2c-0.5-0.2-0.9-0.6-0.9-1.3l-0.4-2.1c-0.1-0.6,0.1-0.9,0.2-1l0.3-0.4l-0.1-1.4
					c-1.2-0.2-2.3-2.1-0.6-3l-0.2-1.5c-1-0.1-1.2-0.9-0.5-1.8l-0.1-0.9l-0.8-0.1c-0.3,0-0.3-0.1,0-0.4l0.7-1.1l0-1.9
					c0-0.3-0.1-0.6-0.3-0.8c-0.5-0.4-0.6-1.1-0.6-1.9c-0.6-0.3-0.5-0.7-0.4-1.1c-1-0.5-0.8-2-0.1-3.9l0.2,0.2v-3.3
					c0-1,0.5-1.6,1.4-2l-0.1-0.7c-0.5-0.2-0.4-0.8-0.1-1.1c0-0.4-0.1-0.5,0.1-0.8c0.3-0.4,0.5-0.7,0.6-1.2c0.3,0.4,0.5,0.9,0.6,1.4
					c0.3,0.2,0.6,0.1,0.8-0.4c0-0.5,0.4-0.9,1-1.3c-0.3-0.4-0.2-0.8,0.2-1.1c0.6-0.2,0.9-0.7,1.1-1.4c0,0.9,0.1,1.3,0.7,0.9
					c1.9-1.7,4.8-2.8,8-3.6l-0.8-0.9c-0.7-0.2-0.9-0.9-0.2-1.4C61,7.6,61.5,7,62.6,6.4V4L62.5,4z"/>
				<path class="st3" d="M62.6,12.3c0.4-0.2,0.6-0.5,0.7-0.9c0.2,0.4,0.3,0.6,0.6,0.7c0.5,0.4,0.5,0.8,0,1.2
					c-0.2,0.1-0.4,0.1-0.6-0.1c-0.4,0.4-0.7,0.2-1-0.2C62.2,12.7,62.3,12.5,62.6,12.3L62.6,12.3z M49.9,21c0.1-0.1,0.2-0.4,0.3-0.7
					c0.4,0,0.9,0,1.4-0.2C51,20.3,50.4,20.6,49.9,21L49.9,21z M52,48.1v1.5c7.8,3.2,15.7,2.7,23.6-0.5l0.1-1
					C68.4,44.9,60.6,44.2,52,48.1L52,48.1z M50.7,22.4L51,22l0.1,0.1l-0.3,0.4L50.7,22.4L50.7,22.4z M68.2,20.3l0.9-0.2l0.4,0.5
					L68.2,20.3L68.2,20.3z M77.1,23.6l1.8,1.3l0.1-1L77.9,23l0.1,0.6L77.1,23.6L77.1,23.6z M68.6,43.8l1-0.7l3,0.8l0.3,0.9l-1,0.8
					l-2.5-0.6L68.6,43.8L68.6,43.8z M69.1,43.8l0.7-0.5l2.4,0.6l0.4,0.7l-0.8,0.5l-2-0.5L69.1,43.8L69.1,43.8z M61.7,17.6
					c0.7-0.4,1.3-1,1.7-1.7c1.6,2.2,3.3,2.1,5,1.1c0.3,0.4,0.7,0.8,1.2,1.1c0.6,0.2,1.1,0.4,1.4,0.6C68,17.8,64.9,17.4,61.7,17.6
					L61.7,17.6z M48,29.1c0.2,0,0.4,0.1,0.4,0.3s-0.2,0.3-0.4,0.3s-0.4-0.1-0.4-0.3C47.6,29.2,47.8,29.1,48,29.1L48,29.1z
					 M52.6,39.2c-0.7-0.3-1.2-0.2-1.5,0.7c0.1,0.1,0.2,0.2,0.3,0.3c0.2,0.2,0,0.2,0.3,0.2c0.4,0.1,0.7-0.1,1.1-0.4
					C52.6,39.8,52.5,39.5,52.6,39.2L52.6,39.2z M70.6,38.5c0.3,1.4,1,2,2.2,1.7c-0.3,0.7-0.7,1.2-1.3,1.5c-0.8-0.1-1.4-0.6-1.8-1.3
					v-0.5C70.2,39.8,70.4,39.3,70.6,38.5L70.6,38.5z M48.9,22.7l0.4-0.4l0.8,0.4L49.7,23l-0.1-0.1l0.1-0.2l-0.4-0.2L49,22.8
					L48.9,22.7L48.9,22.7z M58.3,19.8l0.4-0.2l0.2,0l-0.2,0.2L58.3,19.8L58.3,19.8z M75.6,22.7l0.6,0.4l-0.1-0.4H75.6L75.6,22.7z
					 M76,33.8h1l0.6,1l-0.8,0.4L76,33.8L76,33.8z M75.5,33.5l1.3,2.3l1.5-0.7l-1-1.5L75.5,33.5L75.5,33.5z M60.4,42.8l0.8,0.6
					l0.7-0.7L60.4,42.8L60.4,42.8z M60.4,44.6l1-0.8l0.7,0.6L60.4,44.6L60.4,44.6z M66.9,43.6l0.3,0.4l0.4-0.3l-0.3-0.3
					C67.3,43.4,66.9,43.6,66.9,43.6L66.9,43.6z M73.2,44.9c0,0,1-0.4,1-0.4l0.3,0.2l1,1.4l-1.2,0.3L73.6,46L73.2,44.9L73.2,44.9z
					 M73.5,45.1l0.8-0.3l0.8,1.1L74.4,46L73.5,45.1L73.5,45.1z M50.9,17.4c0.1-0.6,0.4-0.9,0.7-1.2c0.3-0.1,0.5-0.1,0.7,0
					c-0.2,0.4-0.1,0.7,0.3,0.7c-0.2,0.4-0.5,0.7-0.8,0.8C51.5,17.7,51.1,17.6,50.9,17.4L50.9,17.4z M70.1,24.5
					c0.3,0,0.6,0.2,0.6,0.5c0,0.3-0.3,0.5-0.6,0.5c-0.3,0-0.6-0.2-0.6-0.5C69.5,24.8,69.8,24.5,70.1,24.5L70.1,24.5z M53,40
					c0.2,0,0.4-0.1,0.6-0.2c0.1,0.2,0.2,0.3,0.4,0.4c0.2,0.2,0.2,0.4,0.1,0.7c-0.3,0.2-0.5,0.5-0.5,0.8c-0.2-0.2-0.4-0.2-0.6-0.2
					c-0.3,0-0.4-0.3-0.4-0.8c0-0.2,0.1-0.1,0.2-0.3C52.9,40.3,53,40.2,53,40L53,40z M73.8,38.4c0.1-0.3,0.2-0.5,0.5-0.6
					c0.6-0.3,0.5-0.7,0.2-1.1c-0.2-0.1-0.2-0.4-0.3-0.6c-0.1,0.2-0.3,0.4-0.6,0.5c-0.8,0.3-1,0.6-0.5,0.9c0.2,0.3,0.3,0.6,0.2,0.9
					C73.5,38.3,73.6,38.3,73.8,38.4L73.8,38.4z M76.3,22.7l1-0.1l0.3,0.8l-0.9-0.2L76.3,22.7L76.3,22.7z M76.6,22.8l0.7,0l0.2,0.6
					l-0.7-0.2L76.6,22.8L76.6,22.8z M68.4,29.9l1.5,1.3l1.5-0.6C70.5,30.3,69.4,30,68.4,29.9L68.4,29.9z M70.1,31.5l1.8-0.7l2.6,1
					l0.6,1.3l-1.6,1l-2.2-0.7C71.3,33.2,70.2,31.5,70.1,31.5L70.1,31.5z M70.7,31.6l1.3-0.6l2.2,0.9l0.3,0.9l-1.3,0.7L71.4,33
					L70.7,31.6L70.7,31.6z M52.1,47l0.5-0.9l0.9,0.3C53,46.6,52.6,46.8,52.1,47L52.1,47L52.1,47z M56.4,44.5l1.4-0.3l0,0.1l-1.4,0.3
					V44.5L56.4,44.5z M55.6,44.7l0.4-0.6l1.4-0.3l0.8,0.5l-0.5,0.5l-1.4,0.4L55.6,44.7L55.6,44.7z M63,1.5C63.1,1,63.5,1,63.7,1.5
					c0.5-0.4,0.8,0.6,0,0.5l0,0.9l0.7,0c0.2-1.1,1.5-0.5,0.9-0.1c1.1-0.3,1.3,0.9,0.2,0.5C65.3,4,65,4,64.6,3.6H64l0,2.6l0.3,0.6
					C64.7,7,65,7.5,65,7.9c-0.4-0.1-0.7-0.2-1.1-0.2l0-1c0-0.6-0.3-0.8-0.9-0.5l-0.1-2.6l-0.8,0c0.2,0.8-0.8,0.7-0.7-0.1
					c-0.6-0.2-0.5-0.8,0.1-0.7C61.8,2.3,62,2.3,62,3c0.7,0.1,0.9-0.3,0.8-0.9C61.6,1.9,62.4,1,63,1.5L63,1.5z M73,16.5
					c-0.2-0.2-0.2-0.6,0.4-0.7c0.1,0.1,0.3,0.2,0.4,0.2c0.1,0,0.1,0,0.2,0.1c0.2,0.2,0.2,0.4,0.2,0.5c0,0.1-0.1,0.1-0.2,0.1
					C73.6,16.8,73.3,16.7,73,16.5L73,16.5z M78.7,27.8c-0.3-0.5-0.3-0.9,0.3-1.3c0.2,0.2,0.3,0.5,0.3,0.7c0.2,0.1,0.3,0.2,0.4,0.4
					c0,0.3,0,0.4-0.1,0.4c-0.1-0.1-0.2-0.2-0.4-0.2C79.1,27.8,78.9,27.8,78.7,27.8L78.7,27.8z M63.9,33.3c0.2,0.3,0.5,0.5,1,0.8
					c0.9,0.2,0.8,0.7-0.2,1.6c-0.1,0.2-0.3,0.5,0.4,0.3c0.7-0.5,1.1-0.3,1.4,0.1c0.3,0.4,0.6,0.8,0.9,0.9c-0.5,0.1-1,0.2-1.2,0.9
					c-0.3,0.5-0.7,0.5-1.3-0.1c-0.2-0.1-0.3,0-0.3,0.3c-0.5,2.2,2.8,4,3.6,1.7c-1-1.1-0.8-1.7,0.3-2.2c0.9-0.3,1.5-0.1,1.8,0.6
					c0.4,0,0.7-0.1,1-0.4c0.2-0.4,0.6-0.4,0.9-0.1l0.5,0.6c0.2,0.2,0.4,0,0.3-0.3l-0.3-0.5c-0.3-0.4-0.1-0.7,0.5-0.9
					c0.5-0.2,0.8-0.5,1-1C71.2,34.1,67.8,33.2,63.9,33.3L63.9,33.3z M52.7,22.1l-0.6-0.3l0.6-0.9l2.9-1l1.1,0.1L56.1,21l-0.2-0.1
					l0.4-0.6l-0.7-0.2l-2.8,1l-0.4,0.6l0.9,0.1L52.7,22.1L52.7,22.1z M60.7,32.4l0.9-0.9l1.6,0.8c-0.8,0-1.6,0-2.5,0.2
					C60.7,32.5,60.7,32.4,60.7,32.4L60.7,32.4z M64,32.3l1.9-1.1l1.6,1.3C66.4,32.3,65.2,32.2,64,32.3L64,32.3z M73.9,34.2l2.2,1.1
					l-1.1-1.8L73.9,34.2L73.9,34.2z M58.1,43.2l0.9,0.6l1-0.9L58.1,43.2L58.1,43.2z M61.8,43.7l0.8,0.4h2.3l0.6-0.4h0.2l-0.5,0.7
					c-1-0.1-2-0.1-3.1,0L61.8,43.7L61.8,43.7z M60.9,8.7c1.1-0.6,2.2-0.8,4-0.6c1,0.5,0.1,1-0.1,0.8c-1.3-0.4-2.5-0.2-3.7,0.3
					C60.7,9.6,60.5,8.8,60.9,8.7L60.9,8.7z M54.2,14.5c0.4,0.3,0.5,0.6,0.2,1c0.3,0,0.6,0,0.9,0.2c0.3,0.2,0.7,0.1,1.2-0.1
					c-0.5,0.7-2.3,2.7-3.3,1.3l-0.2,0c0.8,2,3.3,1.1,4.2-0.4c-2.1-1.8,3-3.1,1.9-0.3c1.2,1.1,2.4,0.5,3.1-0.8
					c-0.5,0.2-1.1,0.1-1.6-0.4c-0.1-0.2-0.5-0.2-1-0.3c0.7-0.2,1-0.6,1.2-1c0.3-0.5,0.8-0.6,1.4-0.5c-0.2-0.6-0.1-1,0.4-1.3
					c0.2,0,0.3-0.1,0.3-0.3l0.1-0.5C59.8,11.5,56.7,12.4,54.2,14.5L54.2,14.5z M72.3,19.1c0.5-0.2,0.9-0.4,1.2-0.9
					c0.6,1.1,1.4,1.6,2.5,1.5l1.4,0.8c0.4,0.3,0.5,0.7,0.4,1.2C75.9,20.6,74.1,19.6,72.3,19.1L72.3,19.1z M50.5,28.4
					c-0.1,0.5,0,1.3,0.2,2.4c0.7-0.7,0.6-1.1,0.7-1.7c-0.4,0-0.7-0.4-0.7-0.6C50.6,28.5,50.5,28.5,50.5,28.4L50.5,28.4z M70.2,20.2
					l0.4,0.5l3.2,1.1l0.6-0.3l-0.3-0.5l-0.5-0.2l-0.1,0l0.5,0.7l-0.1,0.1l-0.4-0.6l0,0L70.7,20L70.2,20.2L70.2,20.2z M50.3,46
					c7.6-5.2,18.8-4.9,25.7-1.5l-0.1,0.7c-7.1-3.6-18-3.8-25.5,1.2L50.3,46L50.3,46z M52.7,16.3c-0.4,0.2-0.3,0.6,0,0.6
					c0.2,0,0.4,0,0.7-0.2c0-0.1,0-0.1,0-0.2C53.1,16.4,52.9,16.3,52.7,16.3L52.7,16.3z M68.8,15.4c0.1,0,0.2,0.1,0.2,0.2
					c0,0.1-0.1,0.2-0.2,0.2c-0.1,0-0.2-0.1-0.2-0.2C68.6,15.5,68.7,15.4,68.8,15.4L68.8,15.4z M50,24.1c0,1.1,0.2,2.3,0.3,3.4
					c1-1,1.9-1.1,2.6-0.4v0c0.4,0.5,0.3,1-0.2,1.6c1,1.5,3.6,0.7,3.7-1.8c-0.9,1.2-1.7,1.4-2.5,0.1c-0.1-0.1-0.4-0.2-0.7-0.3
					c0.4-0.3,0.6-0.6,0.8-1c0.1-0.8,0.6-1.1,1.2-1c-0.3-0.7-0.2-1.2,0.7-1.9c0.2-0.4,0.3-0.7,0.4-1c0.2,0.4,0.5,0.7,0.8,1
					c1.1,0.1,1.5,0.7,1.1,1.7c0.8-0.7,1.6-1,2.3-0.4c0.3,0.3,0.7,0.5,1.1,0.6c-0.4,0.3-0.7,0.5-0.7,0.8c-0.4,1-1,1.2-1.9,0.7
					c-0.8-0.7-1.6,0.9-0.1,2.3c1.1,0.7,2.3,0.1,3.7-1.5c-0.8-1-0.5-2.2,0.8-2.5c1.5-0.3,2.6,1.3,1.4,2.6c0.4,1.9,3.4,2.5,4.3-0.3
					c0.3-0.8-0.1-1.3-0.6-0.8c-0.8,0.5-1.5,0.5-1.7-0.7c0-0.2-0.3-0.3-0.7-0.5c0.4,0,0.7-0.2,1-0.7c0.3-0.5,0.6-0.7,1.1-0.3l1.3,0.8
					l0-0.2c-0.8-0.6-0.6-1.1,0.3-1.5l0.6-0.9l0.2,0.1c0,0.3,0.2,0.5,0.5,0.6c0.9,0.6,1,1.5,0.1,2c0.2,0.1,0.4,0.1,0.7-0.2
					c0.9-0.4,1.3,0.1,1.5,1.1c0.2,0.3,0.4,0.6,0.7,0.8c-0.4,0-0.8,0.1-1.1,0.4c-1,0.9-1.3,0.7-2.2,0.1c-0.1,1,0.2,1.9,1.5,2.6
					c0.5,0.2,1.1-0.1,1.7-0.9c-0.1-0.9-0.1-1.9,0.9-2c0.4,0,0.8,0.1,1.2,0.5l-0.4-3c-1.5-0.8-3.2-1.5-5.7-2.2
					c-5.3-1.3-9.3-1-13.9-0.1C54,22.2,51.9,23,50,24.1L50,24.1z M68.6,38.6c0.1,0,0.2,0,0.4,0c0.1,0.1,0,0.3,0,0.3
					c-0.2,0-0.3,0-0.4-0.1C68.5,38.7,68.5,38.7,68.6,38.6L68.6,38.6z M57.3,20.1l1.4,0l1.2-0.6l-1-0.1l0,0.1l0.3,0.2l-0.5,0.3
					l-0.7,0l0.7-0.4l0-0.1h-0.3L57.3,20.1L57.3,20.1z M56.3,30.7c0.9-0.3,1.8-0.6,2.5-0.7l-1.5,1.6L56.3,30.7L56.3,30.7z M55.7,13.2
					c2.6-1.3,5.1-1.9,7.5-2c0.1-0.2,0.1-0.4,0.1-0.4c0,0,0,0.2,0.1,0.3c2.8-0.2,5.6,0.4,8.1,1.7c-1.9-1.2-4.1-2-6.7-2.1
					c-0.7,0-1-0.2-1.1-0.7V9H63l0,1.7C59.6,11.2,57.3,12.1,55.7,13.2L55.7,13.2z M48.3,28.6c0.4-0.7,0.4-1.3-0.1-1.6
					c-0.3-0.2-0.5-0.5-0.7-0.9c-0.7,1-0.6,2,0.1,2.7C47.8,28.6,48,28.6,48.3,28.6L48.3,28.6z M52.7,39.1c0-0.3-0.2-0.5-0.6-0.6
					c-0.4-0.2-0.4-0.5-0.2-0.8c0.4-0.4,0.7-0.9,0.8-1.4c0.2,0.4,0.5,0.7,0.8,0.8c0.5,0.2,0.5,0.6,0.1,1.1c-0.6,0.2-0.4,0.6-0.4,0.9
					C53,38.9,52.9,38.9,52.7,39.1L52.7,39.1z M74,40.1c0.3,0.2,0.5,0.8,0.8,0.7c0.1,0.1,0.2,0.3,0.2,0.5c0,0.2-0.1,0.5-0.2,0.7
					C74,41.5,73.8,40.8,74,40.1L74,40.1z M60.7,19.4l0.4-0.5l0.3,0l0,1h-0.2L60.7,19.4L60.7,19.4z M65.7,20l0.5-0.4l0.9,0.6L65.7,20
					L65.7,20z M67.3,19.6l0.4,0.3l0.3-0.1l-0.3-0.3L67.3,19.6L67.3,19.6z M48.9,34.5c9.1-7.3,21.8-6.1,28.9-0.9l0-0.2
					c-2.4-2-6-3.5-10-4.2c-1.2,0.2-2.2,0.1-3.2-0.3c-0.9,0-1.7,0-2.6,0c-1,0.4-2,0.6-3.1,0.4c-3.5,0.7-7,2.2-10.1,4.6L48.9,34.5
					L48.9,34.5z M52.1,47.1c7.6-3.8,17.1-3.3,23.5-0.1v0.6c-7-3.3-15.9-3.7-23.5,0.1V47.1L52.1,47.1z M54.6,46L55,45l1,0.5L54.6,46
					L54.6,46z M69.2,43.8l0.6-0.4l2.3,0.7l0.3,0.5l-0.7,0.5l-1.9-0.5L69.2,43.8L69.2,43.8z M70,43.9l1.7,0.5l0,0.1L70,43.9L70,43.9
					L70,43.9z M52.5,16.2c0.4-0.2,0.7-0.1,1,0.1c0.1-0.3,0.3-0.5,0.4-0.6l0.2-0.2c0.1-0.4,0-0.7-0.4-0.8c-0.2,0-0.4-0.2-0.7-0.6
					c-0.3,0.4-0.5,0.6-0.9,0.8c-0.3,0.2-0.4,0.5-0.1,0.8L52.5,16.2L52.5,16.2z M57.6,18.2c0.4-0.3,0.5-0.7,0.6-1
					c0.6,0.5,1.5,0.7,2.8,0.4c0,0,0,0.1,0,0.1C59.6,17.8,58.4,17.9,57.6,18.2L57.6,18.2z M53.6,38.9c0.2,0.2,0.3,0.4,0.2,0.7
					c1,0.5,1.8,0.2,2.3-0.8c-0.3,0-0.5,0-0.6-0.1c-0.3-0.2-0.6-0.3-0.9-0.4c-0.1-0.1-0.3-0.1-0.4,0C54,38.5,53.8,38.7,53.6,38.9
					L53.6,38.9z M73.1,38.5c-0.2,0-0.4-0.1-0.5-0.2L72.4,38c-0.3-0.5-0.6-0.5-0.9-0.1c-0.2,0.2-0.5,0.3-0.7,0.4
					c0.2,0.2,0.3,0.4,0.4,0.6c0,0.5,0.2,0.6,0.4,0.7c0.4,0.3,0.7,0.3,0.9,0c0.2-0.1,0.4-0.2,0.7-0.3C73,39.1,73,38.9,73.1,38.5
					L73.1,38.5z M49.3,37.1l0-0.8l0.9,0.1L49.3,37.1L49.3,37.1z M59.8,43.9l0.4,0.2l0.5-0.4l-0.4-0.2L59.8,43.9L59.8,43.9z
					 M67.7,44.6l0.8-0.6l0.7,0.8L67.7,44.6L67.7,44.6z M48.8,18c0-0.3,0.1-0.5,0.2-0.6c0.1,0,0.2-0.1,0.2-0.3c0.1-0.1,0.2-0.2,0.3,0
					c0.1,0.2,0.1,0.3,0.3,0.5c0.1,0.2,0.1,0.2,0.1,0.4c0,0.3-0.1,0.6-0.3,0.8c-0.1-0.1-0.2-0.2-0.3-0.2C49.3,18.3,49.2,18,48.8,18
					L48.8,18z M74.4,15.9c0.4-0.1,0.4-0.7-0.2-1.3c-0.3-0.2-0.4-0.6-0.6-1.1c-0.1,0.3-0.2,0.6-0.5,0.8c-0.6,0.5-0.4,1,0.3,1.5
					C73.8,15.9,74.1,16,74.4,15.9L74.4,15.9z M63.7,25.3c0.3,0,0.5,0.1,0.5,0.3s-0.2,0.3-0.5,0.3c-0.3,0-0.5-0.1-0.5-0.3
					C63.2,25.4,63.4,25.3,63.7,25.3L63.7,25.3z M52.9,35.7c0,0.4,0.3,0.8,0.9,1c0.4,0.3,0.5,0.8,0.4,1.1c0.7-0.2,1.2-0.1,1.6,0.3
					c0.3,0.4,0.8,0.7,1.2,0.8c0.8-1.1,2.5-1.1,2.8-0.1c0.2,0.8-0.1,1.3-0.7,1.6c1.3,1.4,4.1,0,3.7-2.5c-0.6,0.8-1.3,0.9-1.9,0.4
					c-0.1-0.5-0.5-0.7-1-0.8c0.6-0.2,0.9-0.5,0.9-0.9c0.2-1.1,0.7-1.3,1.6-0.6c0.5-0.3,0.3-0.6-0.2-0.9c-0.4-0.4-0.2-0.8,0.4-1.2
					c0.6-0.1,0.8-0.4,0.9-0.8C59.9,33.3,56.4,34.2,52.9,35.7L52.9,35.7z M51.5,22.6l0.3-0.4l0.3,0.1L51.5,22.6L51.5,22.6z
					 M56.4,20.8l1.5-0.3l-1.1-0.3L56.4,20.8L56.4,20.8z M66.5,19.5c0,0,0.3,0.2,0.3,0.2l1-0.3l0.5,0.5L67.7,20l-0.6-0.3l-0.2,0.1
					l0.7,0.4l1.3-0.2l-1.2-0.8L66.5,19.5L66.5,19.5z M75.2,22c0,0,0.4,0,0.4,0l0.1,0.1l-0.4,0L75.2,22L75.2,22z M51.5,45.8l1.2-0.7
					L52.3,46L51.5,45.8L51.5,45.8z M66.7,43.6l0.6-0.3l0.4,0.5l-0.5,0.4L66.7,43.6L66.7,43.6z M66.4,43.6c0,0,1.2-0.6,1.2-0.6
					l0.7,0.9l-1,0.6L66.4,43.6L66.4,43.6z M74.6,46.4l1-0.2l0.6,0.9L74.6,46.4L74.6,46.4z M74.4,17.5c0.3,0.8,1.1,1.2,2.4,0.8
					c0.1,0,0.2,0,0.1-0.2l-0.2-0.6c-0.2-0.2-0.4-0.3-0.7-0.1C75.6,17.8,75.1,18.1,74.4,17.5L74.4,17.5z M48.7,29.7
					c0.1-0.3,0.1-0.5,0-0.6c-0.2-0.5,0-0.8,0.5-0.8c0.3,0,0.7-0.1,1-0.1l-0.3,1.3c-0.1,0.3-0.3,0.3-0.6,0.2
					C49.2,29.5,49,29.5,48.7,29.7L48.7,29.7z M53.7,43.3l-0.1,0.5c0.2,0,0.3,0.1,0.4,0.3c0.1-0.1,0.4-0.2,1-0.5
					C54.4,43.6,54.1,43.6,53.7,43.3L53.7,43.3z M65.3,18.9c0.2,0.3,0.2,0.6,0,1l0.2,0l0.5-0.5l-0.5-0.5L65.3,18.9L65.3,18.9z
					 M65.8,18.9l1.3,0.1l-0.9,0.3L65.8,18.9L65.8,18.9z M74.4,21.1l0.3,0.5l0.7,0L74.4,21.1L74.4,21.1z M75.1,22.3
					c0,0,0.1-0.1,0.1-0.1L75,21.9l0.7,0l0.2,0.4l0.1-0.1l-0.3-0.5l-1,0L75.1,22.3L75.1,22.3z M68,29.2c0.7-0.2,1.2-0.6,1.7-1.1
					c0.2,0.8,0.9,1.3,1.7,1.7V30C70.4,29.6,69.3,29.3,68,29.2L68,29.2z M49.6,34.1l2.4-1.6l-0.3,1.8L49.6,34.1L49.6,34.1z
					 M62.8,30.8l0.6-0.4l0.6,0.5l-0.5,0.4L62.8,30.8L62.8,30.8z M66.8,31c0,0,1.2-0.7,1.2-0.7l0.9,0.9l-1.1,0.7L66.8,31L66.8,31z
					 M67.2,31l0.7-0.5l0.6,0.6l-0.7,0.5L67.2,31L67.2,31z M67.8,42.8l0.6,0.9l0.8-0.6C69.2,43,67.8,42.8,67.8,42.8L67.8,42.8z
					 M61.1,8.3c0.6-0.2,1.1-0.4,1.5-0.4l0-1C61.8,7.1,61.4,7.6,61.1,8.3L61.1,8.3z M58.1,15.5c0.2,0,0.4,0.1,0.4,0.3
					c0,0.2-0.2,0.3-0.4,0.3c-0.2,0-0.4-0.1-0.4-0.3C57.7,15.6,57.9,15.5,58.1,15.5L58.1,15.5z M48.6,29.9L47.9,30l0,0.3h0.3
					c1,3,3.4,2.6,4,0.1l0.3-0.1c1.8,1.2,3.8,0.2,5-2l0.2,0c0.5,1.6,4.8,1.2,5.6-0.7l0.2,0c0.5,1.6,4.6,2.2,6.2,0.3
					c0.1,0,0.1,0,0.2,0c0.5,2.6,4.7,2.6,5.2,1.3c0.1,3,3.2,3,3.9,0l-0.1,0c-1.4,2.1-3.2,1.9-3.1-0.6c2-1.7-2.1-2.7-1.2-0.2
					c-1.4,2.4-4.6,1-4.2-2.2c0-0.3,0-0.5,0.5-0.3c0.7,0.8,1.4,1.1,2,0.4c0.1-0.2,0.2-0.3,0.5-0.3c-0.2-0.2-0.3-0.5-0.4-0.9
					c-0.3-0.7-0.7-0.9-1.2-0.5c-0.3,0.2-0.5,0.2-0.8,0l-0.3-0.3c0.8-0.6,0.9-1.2,0.1-1.8c-0.3-0.1-0.4-0.3-0.5-0.7
					c-0.2,0.3-0.3,0.7-0.6,0.8c-0.8,0.4-0.9,0.8-0.2,1.3l0,0.4c-0.7-0.2-1.2-0.5-1.6-0.8c-0.4-0.3-0.7-0.2-0.8,0.3
					c-0.4,0.5-0.6,0.7-0.6,0.6c0.2,0.2,0.4,0.4,0.4,0.8c0.4,0.6,0.7,0.5,1.1,0.2c0.8-0.8,2.3,0.2,0.3,2.3c-1.3,1.3-3.8,0.7-3.8-1.3
					c1.3-1.1,0.1-2.2-0.9-2.3c-0.9,0-1.8,1.2-0.8,2.3c-1,2.1-4.6,3.3-4.9,0.1c-0.1-1,0.2-1.3,1-1.1c0.9,0.6,1.5,0.4,1.8-0.6
					c0.1-0.2,0.2-0.5,0.5-0.6c-0.3-0.1-0.6-0.2-0.8-0.5c-0.6-0.4-1.1-0.4-1.6,0.2c-0.2,0.2-0.6,0.4-1.2,0.6l-0.1-0.2
					c0.8-0.8,0.8-1.4-0.2-1.7c-0.4-0.1-0.7-0.4-0.9-0.7c0,0.3-0.1,0.7-0.5,1.1c-0.6,1-0.1,1.6,1.2,1.5c1.6,0.3,0.2,2.1-0.7,0.8
					c-0.9-0.8-1.6-0.7-2.2,0.3l-0.4,0.7c0.8,1,1.6,1.3,2.4-0.1c0.5-0.2,0.7-0.2,0.6,0.2c-0.3,3.1-2.9,4.7-4.5,2.1
					c0.9-0.7,0.5-1.8-0.9-1.7c-0.9,0.3-1.1,1.6,0.1,2.1C51.4,31.6,49.4,32.1,48.6,29.9L48.6,29.9z M75.4,27.3c0.3,0,0.5,0.2,0.5,0.5
					c0,0.3-0.2,0.5-0.5,0.5c-0.3,0-0.5-0.2-0.5-0.5C74.8,27.6,75.1,27.3,75.4,27.3L75.4,27.3z M70.1,24.5c-0.4,0-0.6,0.3-0.6,0.6
					s0.3,0.6,0.6,0.6s0.6-0.3,0.6-0.6S70.4,24.5,70.1,24.5L70.1,24.5z M63.6,25c0.4,0,0.8,0.3,0.8,0.7c0,0.4-0.4,0.7-0.8,0.7
					c-0.4,0-0.8-0.3-0.8-0.7C62.8,25.3,63.2,25,63.6,25L63.6,25z M51.7,27.5c0.3,0,0.5,0.2,0.5,0.5c0,0.3-0.2,0.5-0.5,0.5
					c-0.3,0-0.5-0.2-0.5-0.5C51.2,27.7,51.5,27.5,51.7,27.5L51.7,27.5z M78.8,28.4c0.1-0.1,0.3-0.1,0.4-0.1c0.1,0.1,0.1,0.2,0,0.3
					c-0.1,0.1-0.3,0.1-0.4,0.1C78.8,28.7,78.8,28.6,78.8,28.4L78.8,28.4z M70.7,42.5c1.3,0.3,2.5,0.6,3.6,1.1l0.3-0.8
					c-0.6-0.1-1.1-0.5-1.4-1.1C72.4,42.2,71.6,42.5,70.7,42.5L70.7,42.5z M52.7,21.6l0.7,0l2.4-0.7l0.3-0.6l-0.5,0L53,21.2
					L52.7,21.6L52.7,21.6z M48.5,35.8l0.8-1.4l2.3,0l-1.4,1.7L48.5,35.8L48.5,35.8z M49,35.4l1.1,0.2l0.8-1l-1.4,0L49,35.4L49,35.4z
					 M58.4,31.6l1.4,0.5l0.8-0.9l-1.2-0.7L58.4,31.6L58.4,31.6z M58.9,31.3l0.6-0.5l0.7,0.4l-0.5,0.5L58.9,31.3L58.9,31.3z
					 M71.3,31.8l0.4,0.8l1.5,0.5l0.7-0.4l-0.2-0.4l-1.8-0.7L71.3,31.8L71.3,31.8z M59.2,44l1-1l1,0.6l-1,0.8L59.2,44L59.2,44z
					 M59.5,43.9c0,0,0.6-0.6,0.6-0.6l0.6,0.3l-0.6,0.5L59.5,43.9L59.5,43.9z M65.5,44.4l0.7-0.7l0.8,0.8L65.5,44.4L65.5,44.4z
					 M64.1,9l0,0.8c0.3,1,0.9,0,1-0.5C64.8,9.2,64.5,9.1,64.1,9L64.1,9z M48.8,18.2c-0.3,0.1-0.3,0.4-0.2,0.8
					c0.2,0.1,0.3,0.1,0.4-0.1l0-0.5C49,18.2,48.9,18.1,48.8,18.2L48.8,18.2z M49.2,41.5c0.1-0.5,0.3-0.7,0.8-0.7
					c0.7,0.2,1,0.7,0.9,1.5l-0.1,0.5c1,1,1.9,1,2.6-0.1l0.2,0.2c-1.1,1.3-2.2,1.7-3.3,0.2C49.5,42.8,49.2,42.3,49.2,41.5L49.2,41.5z
					 M49.5,41.7c0.1,0.2,0.3,0.4,0.4,0.7c0.4,0.3,0.4-0.1,0.4-0.2c0.1-0.3,0-0.6-0.2-0.8C50.1,40.9,49.2,41.1,49.5,41.7L49.5,41.7z
					 M53.7,42.5l0.1,0.7c2.3,0.4,3.8-0.4,4.5-2.5c0.9,2,4.2,1.4,5.3-1.2c0.1-0.2,0.3-0.2,0.4-0.1c1.3,2.5,3.2,2.3,4.9,1.2
					c1.3,2,2.8,1.9,4.4,0.8c1.1,1.6,3.6,1.8,4.4,0c0.3-0.8-0.4-2.1-1.1-1.3c-0.4,0.5-0.6,1-0.5,1.6c-0.3,0.6-1.3,0.6-1.8-0.1
					c-0.5-0.4-0.6-1.1-0.3-2l0.3,0c0.3,0.6,0.7,0.7,1.1,0.4c0.1-0.1,0.2-0.3,0.5-0.4l0-0.3c-0.1-0.1-0.2-0.3-0.3-0.4
					c-0.2-0.3-0.4-0.4-0.7-0.1c-0.1,0.2-0.3,0.2-0.5,0.2l-0.2-0.1c-0.1,0.5-0.4,0.7-0.8,0.6c-0.1,1.6-1.1,2.6-2.5,2.3
					c-0.7-0.3-1.1-0.7-1.4-1.3v-0.5c0.9-0.8,1-1.9-0.4-2.3c-1.4-0.1-1.8,1.4-0.6,2c0.1,1.3-1.8,1.8-2.9,1.1c-0.6-0.5-1-1.1-1.2-1.7
					l0-1.1c0.1-0.3,0.3-0.4,0.6-0.3c0.4,0.4,0.7,0.5,1,0.3c0.2-0.4,0.4-0.7,0.8-0.9c-0.2-0.3-0.3-0.5-0.4-0.8
					c-0.3-0.4-0.7-0.4-1.3,0c-0.3,0.1-0.5,0.1-0.6,0l0-0.6c0.1-0.3,0.4-0.4,0.6-0.5c0.3-0.2,0.3-0.4,0-0.7c-0.6,0-1-0.2-1.3-0.6
					c-0.3,0.3-0.6,0.5-1,0.6c-0.5,0.2-0.5,0.5,0,1c0.4,0.4,0.4,0.7-0.1,1l-0.8-0.4c-0.5-0.3-0.7,0.2-0.8,1.1
					c-0.1,0.2-0.3,0.4-0.4,0.5c0.3,0.3,0.5,0.6,0.7,0.9c0.4,0.2,0.9,0.1,1.1-0.4c0.1-0.2,0.4-0.3,0.9-0.4c-0.6-0.8-0.4-1.3,0.3-1.6
					c-0.8,0.5-0.7,1.5,0.3,1.6c0.9,0,0.9-1.2,0.2-1.5c0.5,0.1,0.8,0.9,0.4,1.4c-0.4,0.3-0.7,0.3-1.1,0.1c-0.2,3.5-3.3,4.8-4.5,2.9
					l0-0.4c0.7,0,0.9-0.5,0.9-1.2c-0.1-0.8-1.3-1-2.1-0.5c-0.6,0.4-0.7,1.3-0.1,1.6C57.7,42.3,55.9,43.5,53.7,42.5L53.7,42.5z
					 M76.9,40.4c0.1-0.2,0.6-0.1,0.6,0.3c-0.1,0.5-0.2,0.8-0.4,0.9c-0.2,0.1-0.3,0-0.3-0.1C76.7,41.2,76.7,40.8,76.9,40.4L76.9,40.4
					z M68.6,38.4c0.3-0.1,0.5-0.1,0.8,0c0.2,0.1,0.1,0.6-0.1,0.7c-0.4,0.1-0.6,0-0.9-0.1C68.4,38.7,68.4,38.6,68.6,38.4L68.6,38.4z
					 M57.9,39.1c0.4-0.2,0.7-0.2,0.9-0.1c0.2,0.1,0.2,0.3,0.1,0.5c-0.2,0.1-0.3,0.2-0.4,0.2c-0.3,0.1-0.5,0-0.6-0.2
					C57.7,39.4,57.8,39.2,57.9,39.1L57.9,39.1z M48.9,23.2c0,0.1,0,0.2,0.1,0.3c0.1,0.1,0.1,0,0.1-0.1c0.1-0.2,0.3-0.4,0.4-0.5
					c0-0.1-0.1-0.2-0.2-0.2C49.1,22.8,49.1,23,48.9,23.2L48.9,23.2z M58.9,20.2c0,0,2-0.2,2-0.2l-0.6-0.4L58.9,20.2L58.9,20.2z
					 M61.7,19l3.6,0c0.2,0.2,0.2,0.7-0.1,0.9l-3.5,0C61.5,19.6,61.5,19.2,61.7,19L61.7,19z M74,21.9l0.9,0.4l-0.5-0.6L74,21.9
					L74,21.9z M59,31.3l0.4-0.4l0.5,0.3l-0.4,0.4L59,31.3L59,31.3z M59.5,29.9c1.1-0.2,2.2-0.3,3.3-0.4l-1.5,1.2L59.5,29.9
					L59.5,29.9z M61.5,31l2.1,1.1l2.1-1.2l-2.2-1.3L61.5,31L61.5,31z M61.9,31l1.6,0.8l1.6-1l-1.6-0.9L61.9,31L61.9,31z M62.1,31
					l1.3,0.7l1.4-0.9L63.5,30L62.1,31L62.1,31z M62.7,30.8l0.8,0.5l0.7-0.5l-0.8-0.6L62.7,30.8L62.7,30.8z M68.2,32.6
					c0.9,0.1,1.7,0.3,2.5,0.5l-0.9-1.5L68.2,32.6L68.2,32.6z M75.7,46.2l0.6,1l0.5,0.3l0-0.1L76.4,47l-0.4-0.7l0.7-0.1l-0.2-0.4
					L75.7,46.2L75.7,46.2z M63.4,11.1c0,0.3,0.1,0.5,0.6,0.7c0.6,0.4,0.9,0.8,0.8,1.3c0.6,0,1,0.1,1.3,0.5c0.2,0.4,0.6,0.5,1.1,0.5
					c-0.4,0.1-0.6,0.4-0.8,0.8c-0.4,0.7-0.8,0.7-1.9,0.5c-0.1,0.2,1,1,1.8,1.1c0.8,0.2,1.4,0,1.6-0.4c-1.1-0.8,0.1-2,1-1.7
					c0.9,0.2,1.6,1.2,0.4,2.1c0.7,1.1,1.7,1.4,3.1,0.9l0-0.9c-0.6,0.3-1.2-0.2-1.9-1.1c-0.1-0.2-0.4-0.4-0.7-0.6
					c0.5,0.3,1.3,0.2,2.4-0.1c0-0.8-0.2-1.4-0.7-1.8C70,12.1,66.6,11,63.4,11.1L63.4,11.1z M52.6,19.7c0.3-0.3,0.6-0.6,0.9-1
					c0.3,0.1,0.7,0.2,1.1,0.2C53.9,19.1,53.2,19.4,52.6,19.7L52.6,19.7z M47.5,22.7v1.2c0.3-0.2,0.5-0.4,0.8-0.6l0.8-1.3l0.9,0.2
					l0.8-0.9l0.7,0.1c0.2-0.1,0.5-0.2,0.8-0.4l0.6-0.5l2.9-0.9l0.6,0.1c2.2-0.5,4.6-0.9,6.9-0.9c6.6-0.2,11.6,1.8,15.9,5l0-0.8
					c-3.1-2.6-6.7-4.9-15.8-5.3C56.6,17.8,51.5,19.7,47.5,22.7L47.5,22.7z M73.1,38.9c0-0.3,0.2-0.4,0.6-0.4
					c0.4,0.1,0.5,0.3,0.4,0.6c-0.1,0.2-0.2,0.3-0.5,0.3C73.2,39.2,73.1,39.1,73.1,38.9L73.1,38.9z M47.6,23.9l0.7-0.5l0.8,0.6
					l-1.4,1L47.6,23.9L47.6,23.9z M49.4,23.8l1-0.7c-0.1-0.1-0.3-0.2-0.5-0.2L49.4,23.8L49.4,23.8z M47.6,25.5
					c9.1-6.8,23-6.1,31.2,0l0-0.6c-7.2-5.8-20.6-7.5-31.3,0.1L47.6,25.5L47.6,25.5z M62.3,28.8l1.1-0.9l1,0.9H62.3L62.3,28.8z
					 M71.7,30.1c1.2,0.3,2.3,0.8,3.4,1.4c-0.5-0.5-0.7-1.1-0.6-1.7c-0.8,0.4-1.8,0.4-2.8,0.2L71.7,30.1L71.7,30.1z M53.1,32.8
					l2.3-0.9l0.4,0.2l-0.1,0.8l-2.2,0.9l-0.6-0.3L53.1,32.8L53.1,32.8z M55.5,44.7L56,44l1.5-0.3l1,0.5L58,44.8l-1.6,0.4L55.5,44.7
					L55.5,44.7z M55,44.8l0.7-1l1.9-0.6l1.3,0.7l-0.7,1c-0.7,0.2-1.3,0.3-2,0.5L55,44.8L55,44.8z M74.9,44.8l1.6,0.9l-0.8,0.3
					L74.9,44.8L74.9,44.8z M53.5,16.3c0.2-0.3,0.4-0.5,0.6-0.6c0.5-0.2,0.8-0.2,0.9,0.1l0.8,0c-0.4,1-1.1,1.6-2.3,1
					C53.6,16.6,53.5,16.5,53.5,16.3L53.5,16.3z M73,15.7c0-0.2-0.1-0.5-0.5-0.8c-0.1-0.1-0.2-0.1-0.4-0.1c-0.2,0-0.6,0.1-0.9,0.2
					c-0.3,0.1-0.5,0-0.8,0c0.4,0.4,0.7,0.8,1,1.2c0.5,0.4,0.9,0.5,1.4,0.1C72.6,16,72.8,15.7,73,15.7L73,15.7z M57.1,24.9
					c0.3,0,0.6,0.2,0.6,0.5c0,0.3-0.3,0.5-0.6,0.5c-0.3,0-0.6-0.2-0.6-0.5C56.5,25.1,56.8,24.9,57.1,24.9L57.1,24.9z M53.2,39
					c0.3,0,0.5,0.2,0.5,0.4c0,0.2-0.3,0.5-0.6,0.5c-0.3,0-0.5-0.2-0.5-0.4C52.7,39.2,52.9,39,53.2,39L53.2,39z M50.2,22.5
					c0,0,0.6,0.3,0.6,0.3l1-0.9l-0.8-0.1L50.2,22.5L50.2,22.5z M50.5,22.4l0.4,0.2l0.4-0.6L51,21.9L50.5,22.4L50.5,22.4z M56.4,19.7
					L57,20l1-0.6L56.4,19.7L56.4,19.7z M59,19.2l1.9-0.2l-0.6,0.5L59,19.2L59,19.2z M69.4,20l0.7,0.7l0.5,0.1l0-0.1l-0.3-0.1
					L70,20.1l0.6-0.2l2.5,0.7l0-0.1l-3-0.9L69.4,20L69.4,20z M52.7,32.6l-0.3,1.1l0.9,0.5l2.7-1l0.4-1.1l-0.8-0.7L52.7,32.6
					L52.7,32.6z M52.8,33.5l0.2-0.8l2.4-1.1L56,32l-0.2,0.9l-2.3,0.9L52.8,33.5L52.8,33.5z M57.6,31.8l2.6,0.8l1-1.5l-2-1.1
					L57.6,31.8L57.6,31.8z M59.3,30.4l-1.1,1.3l1.6,0.5l0.9-1.1L59.3,30.4L59.3,30.4z M50,46.8l1.3-0.9l0.9,0.2l-0.4,1.2l-1.6,0.9
					l-0.1-0.3l1.3-0.8l0.3-0.7l-0.6-0.1L50,47L50,46.8L50,46.8z M52.5,46l0.4-1l1-0.4l0.9,0.3l-0.2,0.5l-0.6,0.8L52.5,46L52.5,46z
					 M53,45.7l0.5-0.7l0.9,0.1l-0.5,0.9L53,45.7L53,45.7z M65.6,42.6l0.8,0.7l1-0.5L65.6,42.6L65.6,42.6z M74.1,16.1
					c0.2,0.2,0.2,0.4,0.1,0.7c0.5,0.8,1.2,0.8,1.9,0.4c-0.3-0.2-0.4-0.4-0.5-0.8C75.3,15.9,74.8,15.8,74.1,16.1L74.1,16.1z
					 M75.2,27.6c0.1,0,0.2,0.1,0.2,0.2c0,0.1-0.1,0.2-0.2,0.2c-0.1,0-0.2-0.1-0.2-0.2C75,27.7,75.1,27.6,75.2,27.6L75.2,27.6z
					 M53.8,42.1c1.2,1.2,3.7,0.1,3.5-1.9c-0.2-0.1-0.4-0.5-0.4-1.2c-0.3,0.1-0.6,0.3-0.8,0.5c-0.3,0.6-0.8,0.8-1.6,0.8
					C54.7,41.1,54.4,41.6,53.8,42.1L53.8,42.1z M74.2,38.3c1.1-0.5,1.2-1.4,0.5-2.3c-0.2-0.1-0.3-0.3-0.2-0.5l1.1,0.6l0,1.9
					c0,0.2-0.2,0.2-0.3,0.2c-0.2-0.1-0.4-0.1-0.5,0c-0.1,0.2-0.3,0.3-0.5,0.2L74.2,38.3L74.2,38.3z M76.7,22.9l0.5,0l0.1,0.2l-0.5,0
					L76.7,22.9L76.7,22.9z M56.5,29.9c0.5-0.3,0.9-0.6,1-1.1c0.3,0.4,0.7,0.6,1.2,0.6L56.5,29.9L56.5,29.9z M66.3,31l1.8-1.1
					l1.6,1.4l-1.8,1.1L66.3,31L66.3,31z M66.7,31l1.3-0.9l1,1L67.7,32L66.7,31L66.7,31z M67.4,31l0.5,0.5l0.5-0.3l-0.5-0.4L67.4,31
					L67.4,31z M49.1,37.4l0.1,0.6c8.3-6.5,20.8-6,28.4-0.8v-0.7C70.7,31.3,58.8,30.3,49.1,37.4L49.1,37.4z M54.2,44.5l1.3-0.5
					l-0.6,0.9L54.2,44.5L54.2,44.5z M61.6,43.4l0.7-0.7c1-0.1,2-0.1,3,0l0.5,0.6L65,42.8h-2.4L61.6,43.4L61.6,43.4z M72.8,43.9
					c0,0,1.1,0.4,1.1,0.4l-0.8,0.3L72.8,43.9L72.8,43.9z M63.2,7.7l0.5,0l0-0.8c-0.2-0.6-0.4-0.6-0.5-0.1V7.7L63.2,7.7z M51.9,27.7
					c0.1,0,0.2,0.1,0.2,0.2c0,0.1-0.1,0.2-0.2,0.2s-0.2-0.1-0.2-0.2C51.6,27.8,51.7,27.7,51.9,27.7L51.9,27.7z M78.6,28
					c-0.4-0.9-1-0.9-1.5-0.4c0.1,1.5,0.7,1.7,1.6,1.3C78.3,28.7,78.3,28.4,78.6,28L78.6,28z M57.7,42.7c4.6-1,8.6-1,12.2-0.3
					c-0.6-0.3-1-0.7-1.3-1.3c-2,1-3.6,0.7-4.8-1.3c-1.4,2.2-3.7,2.9-5.2,1.6L57.7,42.7L57.7,42.7z M51.5,21.4l0.5-0.2l-0.1,0.4
					L51.5,21.4L51.5,21.4z M76.1,21.9l0.8,0.4l-0.5,0L76.1,21.9L76.1,21.9z M49.2,35.3l0.9,0.2l0.6-0.6l-1.1,0L49.2,35.3L49.2,35.3z
					 M52.3,32.4L52,34.2l1,0.6l3.6-1.4l0.5-1.4L56,30.9L52.3,32.4L52.3,32.4z M52.6,32.5l-0.3,1.2l1,0.6l2.8-1.2l0.4-1.1l-0.9-0.8
					L52.6,32.5L52.6,32.5z M71.2,31.8l0.4,1l1.6,0.5l0.8-0.6l-0.2-0.5l-1.9-0.7L71.2,31.8L71.2,31.8z M70.9,31.6l1.1-0.4L74,32
					l0.3,0.8l-1.1,0.7l-1.7-0.6L70.9,31.6L70.9,31.6z M58.4,44.9l0.7-0.8l1,0.5L58.4,44.9L58.4,44.9z M62.4,43.4L62.4,43.4l2.7,0.1
					l0-0.1L62.4,43.4L62.4,43.4z M62,43.5l0.6,0.4l2.1,0l0.8-0.3l-0.7-0.5l-2.3,0L62,43.5L62,43.5z M61.3,9.5l0.6,0.8
					c0.3,0.1,0.5,0.1,0.8,0l0-1.3C62.3,9.1,61.8,9.2,61.3,9.5L61.3,9.5z M50.7,19.2c0.9-0.1,1.5-0.6,1.8-1.5
					c-0.4,0.3-0.8,0.5-1.3,0.5L50.7,19.2L50.7,19.2z M76.6,17.2c0.2,0.2,0.4,0.5,0.5,1c-1.9,0.7-2.8,0-3.1-1.4c-0.3,0-0.6,0-0.9-0.1
					c-0.8,1.5-3.2,1.5-4-0.3c1.9-2.1-2.4-2.2-1.1-0.3c-0.4,1.4-3.9,0.3-3.8-1.3c0-0.1,0.2-0.1,0.3-0.1c0.4,0.9,1.2,0.5,2.1-0.4
					c-0.3-0.3-0.7-0.6-1-0.9c-0.7-0.2-1.2,0-1.2,1c-0.1,0.2-0.1,0.4-0.3,0.4c0.9-1.5-1.7-1.6-1.1-0.2c-0.3,0-0.4-0.2-0.5-0.6
					c-0.6-1.1-1.3-0.6-2.1,0.6c0.7,0.8,1.4,1,2.2,0.4c-0.7,1.8-2.4,2.7-3.8,1.3c1.4-2.1-3.4-1.6-1.4,0.2c-1.3,2.4-4.2,2-4.4,0.4
					l-0.2,0c-0.1,2.1-2.3,3.2-3.5,1.9L49,19.1c1.7,1.9,2.9,0.8,4.2-0.8c1.5,0.9,3.2,0.3,5-1.4c0.8,0.8,3.4,1.2,5.2-1.5
					c1.4,2,3.1,2.6,5.1,1.3c1.4,1.7,3.7,2.3,5.2,0.7c0.8,1.8,2.1,2,3.5,1.5l0.4,0.4c0.1,0.5,0.3,1,0.6,1.2l0.2-1.6
					c-0.5-0.2-0.8-0.5-0.8-0.9l0.4-0.5l0-0.4l-0.5-0.7L76.6,17.2L76.6,17.2z M57.9,15.4c0.4,0,0.7,0.2,0.7,0.4
					c0,0.2-0.3,0.4-0.7,0.4c-0.4,0-0.7-0.2-0.7-0.4C57.2,15.5,57.5,15.4,57.9,15.4L57.9,15.4z M68.6,15.3c-0.3,0-0.5,0.2-0.5,0.3
					s0.2,0.3,0.5,0.3s0.5-0.2,0.5-0.3S68.9,15.3,68.6,15.3L68.6,15.3z M58.2,39.2l0.1-0.2c0.1-0.1,0.2-0.1,0.3,0l0.2,0.3
					c0,0.1-0.1,0.2-0.3,0.2C58.3,39.5,58.2,39.4,58.2,39.2L58.2,39.2z M68.4,19.2l1.6,0.3l-0.8,0.3L68.4,19.2L68.4,19.2z M50.9,36
					l1.8-1L52,34.6L50.9,36L50.9,36z M56.9,33.3l0.4-1.1l2.1,0.5C58.6,32.8,57.8,33,56.9,33.3L56.9,33.3z M63.8,29.5
					c1.4,0,2.8,0,4,0.3l-1.7,1L63.8,29.5L63.8,29.5z M74.9,32l0.5,1.1l1.6,0.2L74.9,32L74.9,32z M76.2,33.9l0.6,1.2l0.6-0.2L77,33.9
					L76.2,33.9L76.2,33.9z M72.1,45.5L73,45l0.4,1L72.1,45.5z"/>
				<path class="st1" d="M53.4,18.7c-0.2,0.4-0.5,0.7-0.8,1c0.6-0.4,1.3-0.6,2-0.7C54.2,19,53.8,18.9,53.4,18.7z M58.2,17.2
					c0,0.4-0.3,0.8-0.6,1c1.1-0.3,2.3-0.5,3.5-0.5l0-0.1C60.3,17.8,58.6,17.8,58.2,17.2z M52.5,17.7c-0.5,0.4-1,0.5-1.4,0.5l-0.5,1
					C51.5,19.1,52.1,18.6,52.5,17.7z M76.9,18.2l-0.2-0.6c-0.5-0.8-1.2,1-2.3-0.1C74.8,18.4,75.6,18.6,76.9,18.2z M57.2,16.6
					c-2.3-2.1,3.2-2.9,1.8-0.2c1.2,0.9,2.3,0.6,3.3-0.9c-1.2,0.7-1.6-0.5-2.6-0.7c1.3-0.5,1-1.8,2.4-1.4c-0.3-1.9,0.8-0.4,1.1-2.5
					c0.1,1.3,1.7,1.1,1.5,2.4c1.2-0.4,1.2,1,2.2,1c-0.9,0.4-0.5,1.7-2.6,1.3c0.9,1,2.7,1.6,3.4,0.8c-1.7-2.8,4.1-1.9,1.5,0.3
					c0.8,1.3,2.1,1.3,3.1,0.8l-0.1-0.9c-1,0.5-1.6-0.9-2.4-1.7c0.8,0.2,1.5,0.1,2.3-0.2c-0.2-0.6-0.1-1.2-0.7-1.6
					c-4.3-4-13.6-2.6-17.5,1.5c0.6,0.1,0.4,0.7,0.4,0.9c0.8,0.1,0.9,0.6,2,0.2c-1.1,1.5-2.6,2.4-3.2,1.3L53,17
					C53.8,18.6,55.7,18.5,57.2,16.6z M50.2,20.2c0,0.2-0.1,0.5-0.2,0.7c0.5-0.3,1.1-0.6,1.6-0.8C51.1,20.2,50.6,20.3,50.2,20.2z
					 M68.4,17c-1.9,1.2-3.5,0.8-5-1.1c-0.4,0.7-0.9,1.3-1.7,1.7c3.1-0.2,6.1,0.2,9.2,1.1C70,18,69.2,18.2,68.4,17z M77.4,20.6
					L76,19.8c-1.2,0.1-2-0.5-2.5-1.6c-0.3,0.5-0.7,0.8-1.1,0.9c1.9,0.6,3.7,1.5,5.4,2.7C77.8,21.2,77.7,20.9,77.4,20.6z M56.6,29.9
					l2.2-0.5c-0.5,0-0.9-0.2-1.2-0.6C57.4,29.2,57.1,29.6,56.6,29.9z M49.9,24.1l0.4,3.4c0.2-0.3,0.7-0.8,1.4-0.9
					c1.1-0.1,2.1,0.9,1,2c0.9,1.4,3.5,1,3.7-1.9c-0.3,0.3-0.6,0.9-1,1c-1,0.2-1-0.2-1.4-0.7c-0.2-0.2-0.4-0.3-0.8-0.4
					c1.3-1.1,0.5-2.1,2-2c-0.3-1.1,0.1-1.3,0.7-1.9c0.2-0.2,0.2-0.6,0.4-1c0.2,0.4,0.5,0.7,0.8,0.9c1.3,0.2,1.4,0.9,1.1,1.7
					c0.5-0.5,1-0.7,1.5-0.7c0.8,0,1.2,0.8,1.9,0.9c-1,0.4-0.7,1.5-1.5,1.7c-0.2,0-0.4,0.2-0.8,0c-0.6-0.6-1.5-0.4-1.1,1.1
					c0.8,1.9,3,1.6,4.3-0.5c-1.8-3.7,4.7-3,2.2,0.1c1.5,3.4,5.1,0.7,4.3-1.3c-0.5-0.2-0.9,0.6-1.6,0.5c-0.9-0.2-0.4-1.2-1.4-1.5
					c1.1-0.2,1-1.3,1.6-1.2c0.6,0.3,1.2,0.7,1.8,1l0-0.2c-0.3-0.2-0.5-0.5-0.5-0.8c0.3-0.7,0.7-0.2,1.4-1.6l0.2,0.1
					c-0.1,0.5,1.3,0.8,1.2,1.7c0,0.4-0.2,0.7-0.6,0.9c0.3,0.2,0.5-0.1,1-0.3c1.5-0.2,0.7,1.3,2,2c-1.4,0-1.7,1.9-3.3,0.5
					c-0.3,1.6,1.8,4,3.2,1.7c-0.4-1.8,1-2.7,2.2-1.5l-0.4-3.1C66.6,19.5,57.7,19.9,49.9,24.1z M62.3,28.9l2.1,0l-1-0.9L62.3,28.9z
					 M71.8,30l-0.1,0.1c1.2,0.4,2.4,0.8,3.4,1.4c-0.4-0.5-0.7-1-0.6-1.7C73.6,30.3,72.7,30.2,71.8,30z M50.6,28.5l-0.2-0.1
					c0,0.8,0,1.6,0.2,2.4c0.4-0.4,0.7-1,0.7-1.7C51,29.1,50.8,28.8,50.6,28.5z M69.7,28.1c-0.4,0.5-1,0.8-1.7,1.1
					c1.2,0.1,2.3,0.4,3.4,0.8l0-0.2C70.5,29.5,70,28.9,69.7,28.1z M74.7,40.8c-0.2-0.1-0.4-0.5-0.7-0.7c-0.3,0.7,0,1.5,0.7,1.9
					c0.3-0.4,0.3-0.8,0.1-1.2H74.7z M73.1,41.7c-0.8,0.6-1.6,0.8-2.5,0.8c1.2,0.3,2.4,0.6,3.6,1.1l0.3-0.8
					C73.9,42.6,73.5,42.2,73.1,41.7z M74.7,36.1c0.7,0.9,0.6,1.7-0.5,2.2l0,0.2c0.2,0,0.4-0.1,0.5-0.3c0.2-0.1,0.4-0.1,0.6,0
					c0.1,0,0.2-0.1,0.3-0.2v-2c-0.4-0.2-0.7-0.4-1.1-0.5C74.4,35.8,74.5,36,74.7,36.1z M53.7,43.3l-0.1,0.5c0.2,0,0.3,0.1,0.4,0.3
					c0.3-0.2,0.7-0.3,1-0.5C54.5,43.6,54,43.5,53.7,43.3z M59.1,40.4c1.7,1.7,4.2-0.5,3.7-2.5c-0.6,0.8-1.2,0.9-1.9,0.4
					c-0.1-0.5-0.5-0.7-0.9-0.8c0.5-0.2,0.9-0.5,0.9-1c0.2-1,0.8-1,1.6-0.5c0.4-0.3,0.3-0.5-0.1-0.8c-0.6-0.5-0.3-1,0.3-1.3
					c0.6-0.2,0.8-0.5,0.8-0.8c-3.7,0.1-7.3,1-10.6,2.5c0.1,0.4,0.3,0.7,1,1c0.4,0.3,0.5,0.7,0.4,1.1c1.7-0.4,1.4,0.6,2.8,1.1
					C58.6,36.9,61.1,38.9,59.1,40.4z M72.8,40.1c-1.1,0.4-1.9-0.2-2.2-1.6c-0.2,0.7-0.4,1.3-0.9,1.3v0.5c0.4,0.7,0.9,1.2,1.8,1.3
					C72,41.4,72.5,40.9,72.8,40.1z M64.9,34.1c0.8,0.1,0.8,0.6-0.1,1.4c-0.4,0.2-0.3,0.7,0.2,0.4c0.6-0.4,1.1-0.4,1.5,0.1
					c0.2,0.3,0.5,0.6,0.8,0.8c-0.5,0-0.9,0.3-1.1,0.7c-0.3,0.6-0.7,0.6-1.3,0.1c-0.1-0.1-0.2-0.1-0.3,0.1c0,0.4,0,0.7,0,1.2
					c0.7,2.3,3.4,2.2,3.6,0.6c-1.9-2.1,1.6-3.1,2.1-1.6c1.1,0,1-0.9,1.6-0.7c0.4,0,0.7,0.9,1.1,0.9c0.4-0.4-0.7-0.9-0.3-1.4
					c0.4-0.4,1.3-0.4,1.5-1.3c-3.4-1.6-6.9-2.2-10.4-2.2C64.1,33.6,64.5,33.9,64.9,34.1z M68.6,41.1c-2.5,1.2-3.9,0.3-4.8-1.3
					c-1.6,2.6-4,2.6-5.2,1.6l-0.8,1.2c4.1-0.9,8.1-1,12.1-0.2C69.2,42.1,68.8,41.6,68.6,41.1z M54.5,40.4c0.1,0.6-0.1,1.2-0.7,1.7
					c1.1,1.1,3.6,0.3,3.5-1.9L56.9,39C55.8,39.3,56.1,40.6,54.5,40.4z"/>
			</g>
		</g>
		<g>
			<path class="st11" d="M167.4,68.8h-25.6v0.3c5.3,2.1,4.6,9.8,4.6,14.6v39.8c0,4.7,0.6,12.6-4.8,14.5v0.3h21v-0.3
				c-5.6-3.2-5.5-7.4-5.5-13.3V77c2.4-0.4,4.9-0.6,7.4-0.6c8.4,0,15,3.7,15,13c0,10.1-9.8,15.7-18.9,16.3c2.4,1.2,5.1,1.5,7.7,1.5
				c11.9,0,23.2-7.7,23.2-19.8C191.6,75.4,181.2,68.8,167.4,68.8z M257.3,69.1l-0.1-0.3h-20.1v0.3c5.3,2,4.6,9.7,4.6,14.5v31.8
				c0,3.8,0.1,6.4-2.2,9.6c-3.5,5-9.5,7.4-15.4,7.4c-10.9,0-16.8-6.5-16.8-20.6V83.6c0-4.7-0.6-12.5,4.6-14.5v-0.3h-20v0.3
				c5.4,2,4.6,9.7,4.6,14.5v28.2c0,7.6-0.2,14.7,5.4,20.8c4.8,5.2,12.1,7.4,19.1,7.4c7.4,0,16-2.5,20.7-8.7v7h15.5v-0.3
				c-5.4-2-4.8-9.7-4.8-14.5V83.7C252.6,78.8,251.9,71.1,257.3,69.1z M319,124.5c-6.6,3.8-14.6,6.6-22.5,6.6
				c-16.3,0-26.8-13.8-26.8-29.3c0-15.3,10.1-26,24.7-26c7,0,13.7,2.3,19.5,6V69.7c-6.2-1.5-12.8-2.6-19.2-2.6
				c-21.6,0-37,14.5-37,36.3c0,22.6,15.4,36.5,40.3,36.5c5.5,0,11-0.8,15.9-3.2l5.4-12.2L319,124.5L319,124.5z"/>
			<path class="st12" d="M365.1,123.5l-15.2-19.1c8.7-2,16.8-9.3,16.8-18.6c0-9.6-7.7-17-21.8-17h-25.1v0.3c5.4,2,4.6,9.7,4.6,14.6
				v39.8c0,4.7,0.7,12.6-4.6,14.5v0.3h20.2v-0.3c-5.4-1.9-4.7-9.6-4.7-14.5V76.2c2.4-0.4,4.7-0.7,7.2-0.9
				c7.1-0.3,13.6,4.1,13.6,11.7c0,9.9-9.8,13.8-18.3,15.1l9.7,14.9l12.9,15.9c3.2,3.9,6.6,5.3,12.2,5.3h9.7
				C376.2,134.4,369.5,128.9,365.1,123.5z M394,84.3c0-7.3,7.6-9.6,13.6-9.6c5.9,0,12.5,2.4,16.6,6.6V69.4
				c-5.1-1.6-10.5-2.3-15.7-2.3c-12.9,0-26.5,5.1-26.5,18.4c0,22.4,36.3,19.4,36.3,35.9c0,7.4-9.1,11-15.1,11
				c-8.2,0-16.9-3.4-23.1-8.8l3.1,13.2c6,2.2,12.5,3.2,18.9,3.2c16.5,0,28.3-10.6,28.3-21.8C430.3,98.5,394,98.8,394,84.3z"/>
		</g>
	</g>
</g>
<g id="Camada_3">
</g>
</svg>
